<?xml version="1.0" encoding="UTF-8"?>
<svg id="Calque_1" data-name="Calque 1" xmlns="http://www.w3.org/2000/svg" viewBox="0 0 240.89 221.79">
  <defs>
    <style>
      .cls-1 {
        fill: none;
      }

      .cls-2 {
        fill: #ffacbf;
      }

      .cls-3 {
        fill: #fff;
      }

      .cls-4 {
        fill: #fff7f0;
      }

      .cls-5 {
        fill: #ffe9db;
      }

      .cls-6 {
        fill: #9f6a4d;
      }

      .cls-7 {
        fill: #c0ccff;
      }

      .cls-8 {
        fill: #1d1d1b;
      }

      .cls-9 {
        font-family: PlayfairDisplay-Bold, 'Playfair Display';
        font-weight: 700;
      }

      .cls-9, .cls-10, .cls-11 {
        font-size: 29px;
      }

      .cls-10 {
        font-family: CourierNewPSMT, 'Courier New';
      }

      .cls-11 {
        font-family: PlayfairDisplay-Regular, 'Playfair Display';
      }
    </style>
  </defs>
  <text class="cls-10" transform="translate(42.59 180.88) rotate(-106.94)"><tspan x="0" y="0">D</tspan></text>
  <text class="cls-10" transform="translate(37.68 164.95) rotate(-98.06)"><tspan x="0" y="0">O</tspan></text>
  <text class="cls-10" transform="translate(35.29 148.46) rotate(-89.22)"><tspan x="0" y="0">U</tspan></text>
  <text class="cls-10" transform="translate(35.46 131.78) rotate(-80.35)"><tspan x="0" y="0">C</tspan></text>
  <text class="cls-10" transform="translate(38.2 115.34) rotate(-71.43)"><tspan x="0" y="0">E</tspan></text>
  <text class="cls-10" transform="translate(43.45 99.53) rotate(-62.47)"><tspan x="0" y="0">U</tspan></text>
  <text class="cls-10" transform="translate(51.1 84.73) rotate(-53.54)"><tspan x="0" y="0">R</tspan></text>
  <text class="cls-10" transform="translate(60.96 71.29) rotate(-44.75)"><tspan x="0" y="0">S</tspan></text>
  <text class="cls-11" transform="translate(73.11 59.6) rotate(-38.48)"><tspan x="0" y="0"> </tspan></text>
  <text class="cls-9" transform="translate(78.17 55.18) rotate(-32.16)"><tspan x="0" y="0">d</tspan></text>
  <text class="cls-9" transform="translate(92.29 46.36) rotate(-23.93)"><tspan x="0" y="0">e</tspan></text>
  <text class="cls-9" transform="translate(105.26 40.78) rotate(-18.46)"><tspan x="0" y="0"> </tspan></text>
  <text class="cls-9" transform="translate(111.09 38.49) rotate(-12.2)"><tspan x="0" y="0">L</tspan></text>
  <text class="cls-9" transform="translate(127.72 34.95) rotate(-3.87)"><tspan x="0" y="0">a</tspan></text>
  <text class="cls-9" transform="translate(142.02 33.84) rotate(4.37)"><tspan x="0" y="0">p</tspan></text>
  <text class="cls-9" transform="translate(158.67 35.1) rotate(13)"><tspan x="0" y="0">o</tspan></text>
  <text class="cls-9" transform="translate(173.95 38.51) rotate(21.77)"><tspan x="0" y="0">n</tspan></text>
  <text class="cls-9" transform="translate(189.82 45.1) rotate(28.7)"><tspan x="0" y="0">i</tspan></text>
  <text class="cls-9" transform="translate(197.45 49.08) rotate(34.79)"><tspan x="0" y="0">e</tspan></text>
  <g>
    <path class="cls-7" d="M209.54,190.06c11.49-15.07,18.36-34.04,18.36-54.67,0-49.02-38.69-88.76-86.42-88.76S55.06,86.37,55.06,135.39c0,20.63,6.87,39.6,18.36,54.67H209.54Z"/>
    <g>
      <path class="cls-1" d="M150.68,198.37c.6-.21,1.18-.46,1.74-.75-.56,.3-1.15,.55-1.74,.75Z"/>
      <path class="cls-1" d="M136.04,190.93c-.29-.29-.55-.62-.78-1,.24,.38,.5,.71,.78,1Z"/>
      <path class="cls-1" d="M152.35,189.51h0c.34-.25,.65-.61,.91-1.05-.26,.43-.57,.79-.91,1.05Z"/>
      <path class="cls-1" d="M139.85,180.08c.4,.03,.8,.04,1.21,.02,3.31-.15,6.61-.29,9.92-.47-3.3,.19-6.61,.33-9.92,.47-.41,.02-.81,.01-1.21-.02Z"/>
      <path class="cls-1" d="M135.49,178.83c-.23-.18-.42-.39-.57-.6,.14,.22,.34,.43,.57,.6Z"/>
      <path class="cls-1" d="M141.85,199.48c.67-.07,1.35-.11,2.02-.15-.68,.04-1.35,.08-2.02,.15Z"/>
      <path class="cls-1" d="M156.15,179.22c.31,.09,.65,.24,1.12,.48-.02,.29-.02,.58-.02,.87,0-.29,0-.58,.02-.87-.46-.24-.81-.39-1.12-.48Z"/>
      <path class="cls-1" d="M155.31,179.15c.17-.04,.34-.05,.52-.02-.19-.03-.36-.02-.52,.02Z"/>
      <path class="cls-1" d="M132.98,183.85c-.21-.14-.45-.21-.71-.27,.26,.06,.5,.14,.71,.27Z"/>
      <path class="cls-1" d="M131.32,184.04c.06-.21,.12-.42,.17-.63,.25,.07,.52,.11,.78,.17-.26-.06-.53-.1-.78-.17-.05,.21-.12,.42-.17,.63Z"/>
      <path class="cls-1" d="M147.89,199.03c-.32,.05-.65,.08-.98,.12-.67,.06-1.35,.1-2.02,.14,.68-.04,1.35-.08,2.02-.14,.33-.03,.66-.07,.98-.12Z"/>
      <path class="cls-1" d="M133.85,185.65c.02,.18,.04,.37,.07,.54,.18,.94,.41,1.76,.7,2.46-.28-.71-.51-1.53-.69-2.46-.03-.18-.05-.36-.07-.54Z"/>
      <path class="cls-1" d="M132.97,190.48c-.26-.35-.48-.75-.64-1.17,.16,.41,.38,.81,.64,1.17Z"/>
      <path class="cls-1" d="M139.84,199.77c-.33,.07-.67,.15-1,.24-.04,.01-.07,0-.11,.02,.04,0,.07,0,.11-.02,.33-.09,.66-.17,1-.24Z"/>
      <path class="cls-1" d="M118.15,171.32c-.17-.32-.38-.62-.72-.87,.34,.25,.55,.55,.72,.87Z"/>
      <path class="cls-1" d="M136.57,198.98c.83,.17,1.69,.2,2.59,.13-.89,.07-1.76,.04-2.59-.13Z"/>
      <path class="cls-1" d="M128.42,190.27c.06,.39,.12,.77,.2,1.16,.19,.97,.5,1.85,.98,2.63-.48-.78-.8-1.66-.98-2.63-.07-.38-.13-.77-.2-1.16Z"/>
      <path class="cls-1" d="M159.2,191.91c-.41,.21-.79,.49-1.15,.84,.36-.35,.75-.63,1.15-.84Z"/>
      <path class="cls-1" d="M169.48,172.42c.12-1.01,.2-2.02,.3-3.02-.09,1.01-.18,2.02-.3,3.02Z"/>
      <path class="cls-1" d="M132.51,196.75c.32,.23,.63,.46,.93,.71,.98,.81,2.02,1.29,3.13,1.52-1.11-.23-2.15-.71-3.13-1.52-.3-.25-.61-.49-.93-.71Z"/>
      <path class="cls-1" d="M128.31,180.53c.13,.1,.22,.22,.27,.38-.05-.16-.13-.28-.27-.38Z"/>
      <path class="cls-1" d="M159.1,179.39c.61-.51,1.18-1.07,1.8-1.56-.62,.49-1.2,1.05-1.8,1.56Z"/>
      <path class="cls-1" d="M119.02,173.08c.47,.82,1.02,1.58,1.62,2.3-.6-.72-1.15-1.48-1.62-2.3Z"/>
      <path class="cls-1" d="M167.4,171.41c-1.59,2.34-3.45,4.41-5.86,5.96,2.42-1.54,4.27-3.61,5.86-5.96Z"/>
      <path class="cls-1" d="M127.32,180.11c.48,.15,.79,.26,.99,.41-.2-.15-.51-.27-.99-.41-2.26-.7-4.14-1.96-5.74-3.67-.33-.35-.64-.7-.94-1.06,.3,.36,.62,.71,.94,1.06,1.61,1.71,3.48,2.98,5.74,3.67Z"/>
      <path class="cls-1" d="M155.6,187.56c-.33,.2-.61,.5-.87,.82,.26-.33,.54-.62,.87-.82Z"/>
      <path class="cls-1" d="M152.85,173.51c-.53-.04-.84-.18-1.02-.43h0c.17,.26,.49,.39,1.02,.43h0Z"/>
      <path class="cls-1" d="M107.81,149.69c-.76-.25-1.22-.79-1.56-1.47,.33,.68,.8,1.22,1.56,1.47Z"/>
      <path class="cls-1" d="M106.53,143.86c.12-.19,.26-.36,.41-.53,.11-.12,.21-.24,.32-.36-.11,.12-.22,.24-.32,.36-.15,.17-.29,.35-.41,.53Z"/>
      <path class="cls-1" d="M115.32,167.51c.35,.05,.63,.21,.87,.42-.24-.21-.52-.37-.87-.42Z"/>
      <path class="cls-1" d="M142.33,101.29c.77,0,1.5-.15,2.16-.55-.66,.4-1.38,.56-2.16,.55Z"/>
      <path class="cls-1" d="M146.78,114.35c.05,1.5,0,2.99-.14,4.48,.14-1.48,.19-2.97,.14-4.48Z"/>
      <path class="cls-1" d="M146.63,118.83c-.14,1.48-.36,2.96-.66,4.43,.29-1.47,.52-2.95,.66-4.43Z"/>
      <path class="cls-1" d="M114.75,167.52c.2-.04,.39-.04,.56-.02-.17-.02-.35-.02-.56,.02h0Z"/>
      <path class="cls-1" d="M125.13,190.43h0c-.28,.06-.52,.13-.75,.19,.23-.06,.47-.13,.75-.19Z"/>
      <path class="cls-1" d="M117.43,174.73c-.79-2.06-1.57-4.12-2.36-6.18-.06-.16-.11-.34-.16-.51,.05,.17,.1,.35,.16,.51,.79,2.06,1.57,4.12,2.36,6.18Z"/>
      <path class="cls-1" d="M107.98,142.18c-.27,.29-.5,.54-.72,.79,.22-.24,.45-.49,.72-.79Z"/>
      <path class="cls-1" d="M119.17,168.46c.04,.52,.17,1.01,.33,1.49-.16-.48-.29-.97-.33-1.49Z"/>
      <path class="cls-1" d="M138.14,174.27c-.77,.2-1.5,.49-2.21,.84,.71-.35,1.44-.65,2.21-.84Z"/>
      <path class="cls-1" d="M157.24,180.57c0,.58,.03,1.17,.02,1.74,.01-.58-.02-1.16-.02-1.74Z"/>
      <path class="cls-1" d="M150.93,175.7c.29,.14,.58,.27,.88,.41,.22,.1,.44,.19,.65,.22-.21-.03-.43-.12-.65-.22-.29-.13-.58-.27-.88-.41Z"/>
      <path class="cls-1" d="M158.35,178.35c.16-.05,.32-.09,.44-.17,1.45-.97,2.88-1.99,4.27-3.05-1.39,1.06-2.81,2.08-4.27,3.05-.12,.08-.29,.12-.44,.17Z"/>
      <path class="cls-1" d="M184.94,141.82c1.64,.23,3.27,.46,4.87,.86-1.6-.4-3.23-.63-4.87-.86Z"/>
      <path class="cls-1" d="M155,183.21c-.06-.31-.09-.67-.21-.96,.12,.29,.15,.66,.21,.96Z"/>
      <path class="cls-1" d="M152.89,183.02c-.66,1.86-1.35,3.71-1.91,5.6,.56-1.89,1.25-3.74,1.91-5.6Z"/>
      <path class="cls-1" d="M139.68,135.08c-.07,.8-.15,1.6-.26,2.4-.13,.98-.35,1.9-.68,2.76,.33-.85,.56-1.78,.68-2.76,.11-.8,.19-1.6,.26-2.4Z"/>
      <path class="cls-1" d="M139.08,174.09c-.32,.04-.64,.11-.95,.19,.31-.08,.62-.14,.95-.19,.77-.11,1.54-.18,2.31-.22-.77,.04-1.54,.11-2.31,.22Z"/>
      <path class="cls-1" d="M124.89,153.06c1.05-1.33,2.22-2.57,3.44-3.76-1.23,1.19-2.39,2.44-3.44,3.76Z"/>
      <path class="cls-1" d="M135.22,175.48c-.73,.4-1.44,.85-2.14,1.3,.7-.45,1.41-.9,2.14-1.3Z"/>
      <path class="cls-1" d="M140.09,192.53c-.49-.03-.95-.09-1.38-.18,.43,.1,.89,.16,1.38,.18Z"/>
      <path class="cls-1" d="M136.88,143.07s-.03,.03-.04,.05c.02-.01,.03-.03,.04-.05Z"/>
      <path class="cls-1" d="M138.7,100.67c-.61-.11-1.24-.15-1.98-.24-.02,.31-.06,.58-.08,.83,.02-.25,.06-.52,.08-.83,.74,.09,1.36,.14,1.98,.24Z"/>
      <path class="cls-1" d="M81.34,107.92c-.3,2.12-.32,4.28-.12,6.46,.05,.58,.17,1.18,.33,1.76-.16-.58-.28-1.18-.33-1.76-.2-2.18-.18-4.34,.12-6.46Z"/>
      <path class="cls-1" d="M76.04,149.07c-.08,.37-.14,.74-.18,1.11-.41,3.62-.97,7.2-2.1,10.67,1.13-3.47,1.69-7.05,2.1-10.67,.04-.37,.1-.74,.18-1.11Z"/>
      <path class="cls-1" d="M87.4,83.14c-.61,.72-1.03,1.66-1.2,2.79-.2,1.34-.38,2.69-.55,4.03,.17-1.35,.35-2.69,.55-4.03,.17-1.13,.59-2.07,1.2-2.79Z"/>
      <path class="cls-1" d="M97.42,196.13c-.13-.16-.3-.29-.48-.43,.17,.14,.35,.27,.48,.43Z"/>
      <path class="cls-1" d="M193.39,74.03c.19,.54,.34,1.09,.45,1.65-.11-.55-.26-1.1-.45-1.65-.6-1.73-1.7-2.66-3.17-2.66,1.47,0,2.57,.93,3.17,2.66Z"/>
      <path class="cls-1" d="M209.25,183.1c.34,.7,.64,1.42,.93,2.14-.29-.72-.59-1.43-.93-2.14Z"/>
      <path class="cls-1" d="M199.76,98.08c.85,1.19,1.37,2.43,1.57,3.76-.2-1.33-.72-2.57-1.57-3.76Z"/>
      <path class="cls-1" d="M177.5,78.9c1.26-1.25,2.59-2.41,4.03-3.44-1.44,1.03-2.77,2.19-4.03,3.44Z"/>
      <path class="cls-1" d="M96.95,195.7c-.06-.05-.11-.09-.17-.14-.43-.38-.84-.78-1.21-1.2,.38,.42,.78,.82,1.21,1.2,.05,.05,.11,.09,.17,.14Z"/>
      <path class="cls-1" d="M209.25,183.1c-.24-.5-.5-1-.77-1.5-1.61-2.92-2.64-6.07-3.38-9.3,.73,3.24,1.76,6.38,3.38,9.3,.27,.49,.53,.99,.77,1.5Z"/>
      <path class="cls-1" d="M190.78,142.15c1.37,.7,2.51,1.77,3.44,3.15-.93-1.39-2.07-2.45-3.44-3.15Z"/>
      <path class="cls-1" d="M166.77,147.47c.29,.14,.57,.29,.86,.44,1.54,.77,3.08,1.54,4.63,2.31-1.54-.77-3.08-1.54-4.63-2.31-.29-.14-.57-.29-.86-.44Z"/>
      <path class="cls-1" d="M95.57,194.37c-1.13-1.25-2.01-2.68-2.55-4.33-.5-1.54-1.09-3.03-1.74-4.5,.65,1.47,1.24,2.97,1.74,4.5,.54,1.65,1.42,3.08,2.55,4.33Z"/>
      <path class="cls-1" d="M194.21,145.31c.92,1.38,1.87,2.73,2.76,4.13,.33,.51,.64,1.02,.93,1.55-.29-.52-.6-1.04-.93-1.55-.89-1.4-1.84-2.75-2.76-4.13Z"/>
      <path class="cls-1" d="M89.15,181.21c-1-1.86-2.04-3.71-3.05-5.57-.15-.28-.29-.57-.42-.85,.13,.29,.27,.57,.42,.85,1.01,1.86,2.04,3.71,3.05,5.57Z"/>
      <path class="cls-1" d="M135.71,101.42c-.06-.43-.04-.84,.08-1.22-.13,.38-.15,.79-.08,1.22Z"/>
      <path class="cls-1" d="M163.19,149.39c-.27,.38-.54,.75-.83,1.1-.16,.2-.29,.4-.38,.6,.09-.2,.22-.4,.38-.6,.29-.36,.56-.73,.83-1.1Z"/>
      <path class="cls-1" d="M147.66,114.06c.02,.85,0,1.7-.02,2.55,.03-.85,.04-1.7,.02-2.55Z"/>
      <path class="cls-1" d="M85.08,173.03c.15,.59,.35,1.18,.61,1.75-.25-.57-.46-1.16-.61-1.75Z"/>
      <path class="cls-1" d="M97.53,196.3c.06,.12,.09,.26,.08,.43,.01-.17-.02-.31-.08-.43Z"/>
      <path class="cls-1" d="M72.22,173.68c.06,1.77,.17,3.53,.3,5.3-.14-1.77-.25-3.53-.3-5.3h0Z"/>
      <path class="cls-1" d="M105.1,140.33c-.56,0-1.11,.05-1.65,.15,.54-.1,1.09-.15,1.65-.15Z"/>
      <path class="cls-1" d="M203.25,197.56c-1.33,0-2.67-.09-3.97-.3,1.31,.21,2.65,.3,3.97,.3Z"/>
      <path class="cls-1" d="M159.83,191.64c.65-.21,1.35-.28,2.1-.2-.75-.08-1.45-.01-2.1,.2Z"/>
      <path class="cls-1" d="M85.63,129.53c.18-.31,.32-.62,.4-.93-.08,.31-.22,.62-.4,.93Z"/>
      <path class="cls-1" d="M200.92,159.25c-.19-1.16-.48-2.3-.85-3.41,.37,1.11,.65,2.25,.85,3.41Z"/>
      <path class="cls-1" d="M146.38,132.62c-.05-.34-.09-.68-.12-1.02,.03,.34,.07,.68,.12,1.02Z"/>
      <path class="cls-1" d="M86.03,128.6c.08-.31,.12-.62,.11-.94,0,.32-.03,.63-.11,.94Z"/>
      <path class="cls-1" d="M88.88,82.01c.57-.27,1.21-.42,1.91-.45-.7,.03-1.34,.19-1.91,.45Z"/>
      <path class="cls-1" d="M157.83,92.79c1.05-.5,2.08-1.02,3.1-1.58-1.02,.56-2.05,1.08-3.1,1.58Z"/>
      <path class="cls-1" d="M151.49,95.68c1.06-.48,2.12-.96,3.18-1.43-1.06,.48-2.12,.95-3.18,1.43Z"/>
      <path class="cls-1" d="M160.93,91.21c1.02-.56,2.01-1.16,2.98-1.81-.97,.65-1.97,1.25-2.98,1.81Z"/>
      <path class="cls-3" d="M151.73,172.94c.02,.06,.07,.09,.1,.14h0s-.08-.08-.1-.14Z"/>
      <path class="cls-3" d="M144.54,161.06c-3.75-1.16-6.94,.2-9.84,2.51-.21,.16-.35,.41-.61,.73,.04,.06,.09,.11,.14,.17,.16-.19,.29-.36,.44-.47,2.89-2.11,6.06-3.34,9.82-2.26,1.68,.49,3.28,1.2,4.99,1.84,.08-.14,.16-.28,.22-.46-1.77-.71-3.43-1.52-5.17-2.06Z"/>
      <path class="cls-3" d="M135.03,153.56c-2.09-.36-3.57,1.3-3,3.36,.57,2.05,2.55,3.58,4.68,3.6,1.65,.02,2.12-.41,2.26-2.05,.18-2.18-1.7-4.52-3.93-4.91Z"/>
      <path class="cls-3" d="M152.08,155.84c0-.59-.31-1.04-.83-1.42-2.12-1.56-4.44-1.18-6.19,.31-1.07,.91-1.22,1.82-.55,3.06,.39,.72,.86,1.41,1.26,2.12,.28,.5,.71,.67,1.25,.68,2.22,.04,4.96-2.5,5.05-4.75Z"/>
      <path d="M213.68,193.52c-.78-3.12-1.75-6.19-3.05-9.14-1.11-2.53-2.15-5.09-3.34-7.57-1.45-3.03-1.95-6.21-1.87-9.52,.13-5.48,.69-10.93,1.39-16.36,.37-2.87,.78-5.75,.91-8.64,.14-3.15-.45-6.18-1.98-9.05-1.65-3.09-3.47-6.06-5.48-8.93-1.91-2.72-2.39-5.7-1.05-8.77,1.7-3.88,2.46-7.98,3.16-12.11,.2-1.16,.06-2.32-.45-3.37-.56-1.17-1.18-2.31-1.8-3.45-.47-.31-.8-.76-1-1.27-.7-.43-1.03-1.12-1.26-1.87-.63-2.06-1.37-4.11-1.83-6.21-.43-1.92-.61-3.89-.8-5.85-.2-2.01-.26-4.04-.45-6.05-.12-1.26-.63-2.4-1.38-3.42-1.19-1.63-3.53-2.09-5.63-1.1-1.08,.51-2.11,1.13-3.19,1.65-3.75,1.8-6.92,4.34-9.63,7.49-2.55,2.97-5.63,5.28-9.04,7.16-.72,.4-1.48,.76-2.17,1.21-4.24,2.84-8.99,4.62-13.62,6.64-2.5,1.09-5.11,1.49-7.83,1.14-3.65-.47-7.29-1.01-10.96-1.38-3.14-.32-6.14-1.14-9.13-2.08-2.8-.89-5.62-1.74-8.44-2.59-2.98-.89-5.78-2.18-8.29-3.99-3.81-2.74-8.05-4.39-12.6-5.35-3.91-.83-7,1.33-7.49,5.29-.25,2.01-.46,4.02-.69,6.03-.35,3.02-.87,6-2.17,8.8-1.5,3.22-2.09,6.63-2.28,10.16-.17,3.19,.47,6.11,2.14,8.83,.48,.78,1,1.62,1.14,2.49,.24,1.54,.82,2.91,1.52,4.26,.54,1.04,.34,1.85-.3,2.79-3.03,4.46-5.69,9.12-7.75,14.12-1.13,2.74-1.82,5.57-2.15,8.53-.22,2-.54,4.03-1.12,5.95-1.6,5.3-2.13,10.72-2.19,16.21-.01,1.37,.21,2.75,.32,4.12,.18,2.34,.3,4.68,.56,7.01,.68,5.94,1.65,11.84,1.86,17.83,.02,.63,.1,1.24,.52,1.79,.33-.16,.59-.25,.82-.4,1.99-1.33,4.18-2.1,6.53-2.45,.82-.12,1.62-.35,2.43-.5,2.76-.49,5.47-1.27,8.3-1.31,.12,0,.22,0,.32,0,.36-.16,.77-.25,1.25-.24,.31,0,.59,.05,.85,.13,.35-.26,.78-.41,1.33-.45,.39-.03,.81-.4,1.11-.71,1.09-1.12,2.11-2.29,3.2-3.41,.83-.84,1.88-1.31,3.03-1.54,3.11-.62,6.22-1.25,9.33-1.83,3.6-.67,7.24-.55,10.87-.47,1.36,.03,1.52,.12,1.96,1.45,.47,1.42,1.16,2.73,2.26,3.74,2.1,1.93,4.28,3.77,6.85,5.09,1.16,.6,2.37,1.02,3.68,1.08,3.32,.15,6.62-.09,9.9-.62,1.74-.28,3.24-1.06,4.38-2.41,1.25-1.47,2.46-2.98,3.67-4.48,.46-.57,.86-1.19,1.33-1.76,.99-1.2,2.26-1.66,3.81-1.43,.95,.14,1.92,.19,2.88,.33,3.19,.44,6.37,.92,9.56,1.35,1.68,.23,3.38,.58,5.06,.56,1.77-.02,3.49,.16,5.21,.48,1.45,.27,2.88,.63,4.32,.92,1.71,.35,3.42,.69,5.14,1.02,1.35,.26,2.74,.38,4.04,.78,1.8,.54,3.6,.67,5.45,.49,1.78-.17,3.58-.24,5.36-.41,1.28-.13,2.55-.36,3.81-.56,.61-.1,1.01-.46,.99-1.12-.03-.91,.05-1.86-.17-2.73Zm-88.55-3.09c-.28,.06-.52,.13-.75,.19-.23,.06-.44,.1-.65,.11-1.93,.06-3.86,.09-5.79,.12-.55,0-1.11,.04-1.65,.09-1.65,.15-3.27,.45-4.89,.82-2.24,.51-4.52,.85-6.78,1.22-1.91,.31-3.62,.98-5.09,2.27-.86,.75-1.02,.71-1.91,.04-1.74-1.3-3.11-2.94-3.75-5.01-.55-1.78-1.22-3.5-1.98-5.18-1.26-2.8-2.76-5.48-4.32-8.13-1.45-2.46-2.22-5.01-1.97-7.88,.27-3.07,.37-6.15,.66-9.21,.19-1.95,1.01-3.72,2.06-5.36,1.21-1.9,2.43-3.79,3.67-5.68,1.03-1.56,2.4-2.83,3.96-3.79,2.03-1.24,4.16-2.35,6.31-3.38,1.92-.91,3.91-.72,6.15,.05-.15,.17-.3,.32-.43,.47-.27,.29-.5,.54-.72,.79-.11,.12-.22,.24-.32,.36-.15,.17-.29,.35-.41,.53-.85,1.3-.97,2.93-.28,4.35,.33,.68,.8,1.22,1.56,1.47,.83,.27,1.64,.59,2.47,.88,1.71,.6,3.36,.26,4.98-.35,.62-.23,1.24-.5,1.86-.76,.62-.25,1.24-.49,1.88-.67,1.63-.46,3.31-.77,4.97-1.08,1.31-.24,2.54,.15,3.94,.67-.41,.54-.74,1-1.1,1.44-1.25,1.53-2.59,3-3.74,4.6-1.39,1.92-2.48,3.97-3.12,6.18-.39,1.33-.61,2.71-.65,4.16,0,.31-.02,.62-.05,.93-.06,.93-.15,1.86-.08,2.77,.04,.52,.17,1.01,.33,1.49,.34,1.03,.89,2,1.44,2.96,.13,.23,.24,.46,.35,.7,.11,.24,.21,.48,.32,.72-.08,.07-.16,.13-.24,.2-.23-.15-.53-.26-.67-.47-.51-.77-.9-1.61-1.44-2.35-.87-1.18-1.78-2.33-2.74-3.44-.1-.12-.21-.23-.33-.34-.24-.21-.52-.37-.87-.42,0,0-.01,0-.02,0-.17-.02-.35-.02-.56,.02,.06,.18,.11,.34,.16,.51s.1,.35,.16,.51c.79,2.06,1.57,4.12,2.36,6.18,.79,2.06,1.59,4.12,2.41,6.17,.51,1.27,1.02,2.7,1.97,3.59,1.39,1.3,2.03,2.92,2.81,4.51,.1,.2,.17,.41,.25,.65,.08,.23,.15,.49,.26,.79h0Zm14.61-62.58c-.25-3.67-.43-7.34-.66-11.01-.1-1.62-.16-3.24-.31-4.85-.05-.54-.11-1.07-.19-1.61-.06-.41-.14-.81-.23-1.21-.09-.4-.2-.8-.31-1.2-.22-.8-.46-1.59-.65-2.4-.29-1.2-.54-2.41-.75-3.63-.04-.21-.03-.44,0-.68,.02-.25,.06-.52,.08-.83,.74,.09,1.36,.14,1.98,.24,.81,.14,1.62,.34,2.43,.49,.41,.08,.81,.13,1.19,.13,.77,0,1.5-.15,2.16-.55,.33-.2,.64-.47,.93-.8,.06-.07,.14-.11,.22-.16,.04-.02,.09,0,.23-.01,.08,.21,.24,.44,.27,.68,.19,1.73,.45,3.47,.51,5.21,.11,2.89,.03,5.79,.12,8.69,.05,1.5,0,2.99-.14,4.48-.14,1.48-.36,2.96-.66,4.43-.7,3.5-.93,7.02-.22,10.55,.29,1.46,.92,2.76,1.75,4.01,1.61,2.43,3.65,4.32,6.21,5.74,3.04,1.68,5.24,4.22,6.48,7.46,.53,1.39,.99,2.81,1.45,4.23,.45,1.42,.9,2.85,1.42,4.25,.51,1.38,.82,2.8,1.04,4.22,.36,2.38,.47,4.79,.81,7.17,.24,1.68-.45,3.19-1.83,4.24-1.39,1.06-2.81,2.08-4.27,3.05-.12,.08-.29,.12-.44,.17-.28,.08-.58,.12-.83,.08-.81-.15-1.6-.42-2.37-.71-.13-.05-.25-.14-.36-.26-.11-.11-.21-.24-.3-.36-.15-.19-.28-.39-.42-.61-.14-.22-.29-.45-.46-.71-.3,.39-.59,.55-.88,.57-.09,0-.17,0-.26-.02-.21-.03-.43-.12-.65-.22-.29-.13-.58-.27-.88-.41-.29-.14-.59-.27-.88-.4-.59-.26-1.19-.5-1.8-.67-2.25-.64-4.55-.86-6.86-.75-.77,.04-1.54,.11-2.31,.22-.32,.04-.64,.11-.95,.19-.77,.2-1.5,.49-2.21,.84-.24,.12-.48,.24-.71,.37-.73,.4-1.44,.85-2.14,1.3-.27,.17-.53,.34-.8,.51-.5,.32-.98,.69-1.48,1.02-1.14,.75-2.32,.77-3.53,.15-2.09-1.07-3.88-2.48-5.04-4.56-.7-1.24-1.4-2.5-1.88-3.83-.35-.97-.5-2.07-.46-3.1,.07-1.74,.29-3.49,.58-5.21,.17-.98,.53-1.95,.92-2.87,.89-2.15,2.1-4.07,3.5-5.84,1.05-1.33,2.22-2.57,3.44-3.76,.41-.4,.83-.79,1.25-1.18,1.63-1.5,3.41-2.79,5.42-3.76,.71-.35,1.32-.76,1.84-1.24,.02-.01,.03-.03,.04-.05,.85-.79,1.44-1.75,1.85-2.83,.33-.85,.56-1.78,.68-2.76,.11-.8,.19-1.6,.26-2.4,.2-2.4,.23-4.81,.06-7.23Zm17.52,54.47c-.03,1.45-.29,2.86-1.74,4.07-.1-.6-.18-1.15-.26-1.68-.08-.52-.17-1.01-.26-1.5-.06-.31-.09-.67-.21-.96s-.32-.52-.72-.55c-.29-.02-.5,.07-.66,.24-.21,.22-.33,.55-.44,.86-.03,.08-.05,.16-.08,.23-.66,1.86-1.35,3.71-1.91,5.6-.46,1.54-1.38,2.42-2.95,2.7-2.03,.36-4.06,.78-6.09,1.17-.09,.02-.18,.03-.27,.03-.56,.03-1.08,.04-1.57,0s-.95-.09-1.38-.18c-1.07-.24-1.96-.7-2.68-1.42-.29-.29-.55-.62-.78-1s-.45-.8-.64-1.27c-.28-.71-.51-1.53-.7-2.46-.03-.18-.05-.36-.07-.54-.03-.23-.06-.46-.15-.67-.12-.31-.27-.66-.49-.91-.07-.08-.15-.16-.23-.21-.21-.14-.45-.21-.71-.27s-.53-.1-.78-.17c-.05,.21-.12,.42-.17,.63-.06,.21-.1,.42-.12,.64-.02,.4,.1,.82,.15,1.23,.1,.77,.09,.78-.5,1.6-1.25-.35-1.5-.58-1.45-1.6,.09-1.92,.23-3.84,.36-5.94,1.11-.69,2.35-1.46,3.66-2.26,.19,.19,.38,.31,.48,.5,.18,.34,.39,.64,.62,.91,.47,.54,1.03,.94,1.69,1.19,.33,.13,.68,.21,1.05,.26,1.63,.22,3.29,.41,4.93,.4,2.43,0,4.87-.16,7.3-.3,.92-.05,1.83-.12,2.72-.3,.67-.13,1.32-.33,1.95-.64,.21-.1,.42-.22,.62-.34,.18-.11,.35-.19,.51-.23s.34-.05,.52-.02c.09,.01,.21,.06,.31,.09,.31,.09,.65,.24,1.12,.48-.02,.29-.02,.58-.02,.87,0,.58,.03,1.17,.02,1.74Zm-4,6.15c-.26,.43-.57,.79-.91,1.05h0s0,0,0,0c-.08-.18-.23-.38-.28-.54-.02-.06-.02-.11,0-.16,.44-1.79,.95-3.56,1.94-5.15,.4,1.57,.04,3.51-.74,4.8Zm-19.02,1.45c-.08,.33-.17,.77-.4,.9-.18,.1-.7-.12-.87-.35-.26-.35-.48-.75-.64-1.17-.05-.14-.13-.27-.16-.41-.09-.37-.15-.74-.19-1.11-.08-.74-.08-1.48-.02-2.23,.03-.37,.08-.74,.15-1.11,.12-.03,.24-.07,.36-.1,.14,.24,.36,.47,.39,.73,.19,1.51,.55,2.96,1.23,4.33,.08,.16,.19,.36,.16,.51Zm.48-12.72c.07-.23,.23-.45,.49-.65,.13-.1,.29-.2,.48-.28,1.86-.87,3.8-1.39,5.84-1.45,1.44-.04,2.86,.03,4.24,.24,.92,.14,1.83,.34,2.73,.61,.45,.13,.89,.28,1.33,.45,.88,.33,1.74,.73,2.59,1.2,.52,.29,.99,.65,1.58,1.05-.93,1-1.97,1.21-3.02,1.27-3.3,.19-6.61,.33-9.92,.47-.41,.02-.81,.01-1.21-.02-1.2-.09-2.37-.39-3.51-.81-.3-.11-.6-.25-.85-.44-.23-.18-.42-.39-.57-.6-.21-.33-.3-.69-.2-1.03Zm14.05,24.47c-2.34,.6-4.74,.58-7.13,.63-.05,0-.09,0-.14,0-4.07,.44-7.31-1.36-10.31-3.81-1.83-1.5-3.39-3.19-4.16-5.54-.54-1.66-1.34-3.22-2.01-4.84-.22-.53-.36-1.1-.62-1.89,.2,.06,.38,.12,.55,.19,.34,.14,.63,.32,.88,.52,.37,.3,.64,.66,.86,1.06,.14,.27,.26,.55,.35,.85,.24,.74,.33,1.53,.44,2.3,.26,1.85,1.04,3.43,2.37,4.71,.85,.82,1.77,1.56,2.74,2.19,.98,.64,2.02,1.18,3.12,1.62,.97,.39,1.98,.61,3,.36,.04,0,.07,0,.11-.02,.33-.09,.66-.17,1-.24,.67-.13,1.34-.23,2.01-.29s1.35-.11,2.02-.15c.34-.02,.68-.04,1.01-.05,.68-.04,1.35-.08,2.02-.14,.33-.03,.66-.07,.98-.12,.97-.14,1.9-.35,2.8-.66,.6-.21,1.18-.46,1.74-.75,.56-.3,1.11-.65,1.64-1.05,.33-.25,.66-.64,1.35-.52-1.52,2.83-3.56,4.83-6.65,5.62Zm5.82-6.4c-2.62,2.07-5.58,3.1-8.92,3.2-1.88,.05-3.76,.24-5.61,.53-.31,.05-.61,.08-.9,.11-.89,.07-1.76,.04-2.59-.13-1.11-.23-2.15-.71-3.13-1.52-.3-.25-.61-.49-.93-.71s-.64-.45-.96-.67c-.83-.56-1.47-1.24-1.95-2.03-.48-.78-.8-1.66-.98-2.63-.07-.38-.13-.77-.2-1.16s-.13-.77-.23-1.15c-.46-1.86-1.52-3.22-3.35-3.92-1.72-.65-2.95-1.85-3.77-3.47-.48-.94-.91-1.91-1.28-2.9-.9-2.41-1.75-4.84-2.61-7.27-.15-.41-.22-.86-.36-1.45,.24,.09,.44,.2,.61,.33,.34,.25,.55,.55,.72,.87,.08,.16,.16,.32,.23,.49,.19,.44,.41,.86,.64,1.27,.47,.82,1.02,1.58,1.62,2.3,.3,.36,.62,.71,.94,1.06,1.61,1.71,3.48,2.98,5.74,3.67,.48,.15,.79,.26,.99,.41,.13,.1,.22,.22,.27,.38,.08,.24,.08,.57,.06,1.07-.05,1.19-.13,2.39-.24,3.58-.03,.31-.03,.6,.01,.87,.12,.81,.56,1.44,1.42,1.84,.8,.37,1.32,.97,1.71,1.73,1.38,2.67,3.61,4.01,6.57,4.42,3.73,.51,7.42,.52,11.09-.42,1.22-.31,2.23-.87,2.96-1.87,.32-.44,.62-.91,.92-1.37,.3-.46,.6-.93,.92-1.37,.24-.33,.48-.69,.74-1.01,.26-.33,.54-.62,.87-.82,2.01-1.22,2.72-3.01,2.71-5.23,0-.41,0-.83,0-1.24,0-.68,.26-1.25,.79-1.69,.61-.51,1.18-1.07,1.8-1.56,.21-.16,.42-.32,.64-.46,2.42-1.54,4.27-3.61,5.86-5.96,.26-.38,.52-.76,.79-1.13,.05-.07,.14-.11,.44-.32-.08,1.32-.09,2.46-.23,3.57-.06,.5-.15,1-.24,1.5-.19,.99-.45,1.95-.76,2.9s-.67,1.87-1.07,2.78c-.4,.91-.85,1.81-1.32,2.69-.24,.44-.48,.88-.73,1.32-.53,.92-1.19,1.71-1.96,2.39s-1.63,1.26-2.57,1.74c-.45,.23-.91,.45-1.35,.69-1.55,.85-2.54,2.13-2.72,3.91-.08,.81-.47,1.35-1.08,1.83Zm32.52-.39c-2.54-.71-5.12-.97-7.76-1.09-2.47-.11-4.92-.64-7.37-.98-2.18-.3-4.37-.6-6.56-.89-.91-.12-1.84-.16-2.73-.35-.26-.06-.52-.1-.77-.12-.75-.08-1.45-.01-2.1,.2-.22,.07-.43,.16-.63,.26-.41,.21-.79,.49-1.15,.84-.18,.17-.36,.37-.52,.58-.11,.14-.25,.26-.44,.45-.12-.14-.21-.28-.26-.42-.11-.28-.08-.55,0-.82,.04-.14,.1-.27,.16-.41,.11-.23,.23-.44,.38-.63,.43-.57,1.01-.99,1.67-1.34,.93-.5,1.87-1,2.74-1.6,1.54-1.05,2.79-2.41,3.67-4.06,1.54-2.89,2.9-5.86,3.58-9.08,.21-.99,.35-1.99,.47-2.99,.12-1.01,.2-2.02,.3-3.02,.03-.32-.01-.65-.07-.98-.06-.33-.14-.65-.18-.96-.82-.13-1.08,.3-1.33,.75-.17,.3-.32,.61-.49,.91-.16,.3-.33,.61-.51,.9-.26,.42-.59,.79-1.03,1.38-.16-.5-.29-.77-.32-1.06-.17-1.32-.38-2.64-.45-3.97-.14-2.46-.7-4.81-1.49-7.13-.7-2.04-1.27-4.13-1.96-6.18-.24-.73-.25-1.36,.04-1.97,.09-.2,.22-.4,.38-.6,.29-.36,.56-.73,.83-1.1,.27-.38,.53-.75,.79-1.13,.4-.57,.89-.74,1.55-.43,.87,.42,1.77,.78,2.63,1.21,2.84,1.41,5.68,2.83,8.52,4.25,1.09,.55,2.09,.65,2.92,.33,.83-.32,1.5-1.06,1.95-2.2,.62-1.58,.86-3.2,.85-4.85,0-.55-.03-1.1-.09-1.66-.04-.39-.05-.78-.05-1.17s0-.78,0-1.17c0-.67,.35-1.08,1.03-.98,.54,.08,1.09,.16,1.64,.23,1.64,.23,3.28,.46,4.87,.86,1.49,.37,2.68,1.45,3.57,2.71,1.08,1.51,2.09,3.06,2.99,4.65,1.21,2.13,2.22,4.35,2.93,6.73,.18,.59,.34,1.2,.47,1.81,.97,4.31,.37,8.5-.87,12.65-.68,2.26-1.71,4.36-2.87,6.4-2.57,4.5-4.11,9.33-4.38,14.52-.06,1.05,.06,2.1,.09,3.27-1.7,.2-3.18-.13-4.63-.53Zm25.6,1.47c-.25,.33-.69,.52-1.35,.6-.71,.08-1.42,.14-2.13,.19s-1.42,.09-2.13,.14c-1.28,.1-2.57,.28-3.85,.28-1.33,0-2.67-.09-3.97-.3-1.54-.25-3.05-.68-4.58-1-1.23-.26-1.58-.61-1.8-1.91-.55-3.22,.05-6.32,1.01-9.37,.89-2.87,2.2-5.55,3.66-8.17,2.43-4.35,3.65-9.07,3.65-14,0-1.21-.1-2.4-.29-3.56-.19-1.16-.48-2.3-.85-3.41-.55-1.67-1.28-3.29-2.17-4.85-.29-.52-.6-1.04-.93-1.55-.89-1.4-1.84-2.75-2.76-4.13-.93-1.39-2.07-2.45-3.44-3.15-.82-.42-1.73-.71-2.73-.87-1.5-.23-3-.47-4.51-.63-1.83-.18-2.37,.3-2.38,2.11,0,1.1,.13,2.2,.24,3.3,.16,1.68,.02,3.31-.63,4.87-.78,1.87-2.03,2.42-3.86,1.55-1.56-.74-3.1-1.5-4.65-2.27-1.54-.77-3.08-1.54-4.63-2.31-.29-.14-.57-.29-.86-.44-.87-.43-1.77-.79-2.9-.68-.86,1.18-1.76,2.43-2.78,3.83-.18-.29-.36-.55-.51-.79s-.3-.47-.42-.71c-.88-1.79-2.1-3.25-3.61-4.46-.5-.4-1.03-.77-1.59-1.12-.78-.48-1.53-1.02-2.31-1.51-.56-.35-1.09-.74-1.58-1.16-.98-.84-1.83-1.81-2.54-2.88-.35-.53-.68-1.09-.97-1.67-.59-1.19-.98-2.44-1.18-3.72-.05-.34-.09-.68-.12-1.02-.08-.96-.06-1.94,.05-2.92,.26-2.33,.54-4.66,.87-6.99,.24-1.69,.4-3.38,.46-5.08,.03-.85,.04-1.7,.02-2.55s-.06-1.7-.12-2.56c-.14-1.78,.04-3.59-.04-5.38-.05-1.03-.13-2.06-.22-3.09-.09-1.03-.2-2.06-.31-3.08-.06-.56-.34-1.1-.59-1.86-.63,.49-1.07,.75-1.42,1.11-.84,.86-1.88,1.18-3.02,1.04-1.32-.16-2.62-.44-3.92-.69-.49-.09-.98-.24-1.48-.37-.37,.3-.6,.64-.73,1.02-.13,.38-.15,.79-.08,1.22,.16,1.09,.23,2.22,.59,3.25,1.19,3.43,1.56,6.98,1.76,10.57,.27,4.91,.69,9.82,.95,14.73,.16,3.13-.15,6.25-.85,9.32-.4,1.76-1.39,3.1-2.99,3.94-1.75,.93-3.45,1.92-4.94,3.26-.97,.87-2.18,.98-3.38,.62-.94-.28-1.87-.38-2.79-.34-.92,.05-1.84,.24-2.76,.53-2.19,.7-4.36,1.38-6.46,2.38-2.46,1.17-4.9,.49-7.06-.95-1.19-.79-1.52-2.24-1.03-3.52,.16-.43,.41-.84,.75-1.2,.41-.43,.9-.79,1.3-1.23,.59-.65,.58-1.06-.09-1.63-.3-.25-.7-.46-1.09-.54-.85-.18-1.69-.28-2.53-.28-.56,0-1.11,.05-1.65,.15-.82,.15-1.62,.43-2.39,.87-1.76,.99-3.54,1.98-5.22,3.1-2.12,1.42-3.91,3.2-5.33,5.34-.79,1.19-1.56,2.39-2.43,3.52-1.39,1.8-2.11,3.86-2.54,6.05-.46,2.35-.69,4.73-.61,7.14,.02,.64,0,1.29-.09,1.93-.21,1.59-.14,3.12,.24,4.6,.15,.59,.35,1.18,.61,1.75,.13,.29,.27,.57,.42,.85,1.01,1.86,2.04,3.71,3.05,5.57,.76,1.42,1.48,2.86,2.13,4.33,.65,1.47,1.24,2.97,1.74,4.5,.54,1.65,1.41,3.08,2.55,4.33,.38,.42,.78,.82,1.21,1.2,.05,.05,.11,.09,.17,.14,.17,.14,.35,.27,.48,.43,.04,.05,.08,.11,.11,.17,.06,.12,.09,.26,.08,.43,0,.08-.02,.17-.05,.27-.23,.79-.55,1.49-1.41,1.72-.62,.17-1.26,.27-1.89,.36-3.41,.5-6.84,.91-10.24,1.49-2.72,.47-5.42,1.08-7.83,2.54-.26,.16-.58,.22-1.01,.38-.15-1.41-.29-2.72-.44-4.02-.58-5.07-1.22-10.13-1.74-15.2-.18-1.76-.35-3.52-.49-5.29-.14-1.77-.25-3.53-.3-5.3h0c-.02-.54,0-1.07,.01-1.61,.07-1.61,.29-3.23,.46-4.84,.17-1.64,.44-3.28,.7-4.91,.08-.5,.21-.99,.37-1.47,1.13-3.47,1.69-7.05,2.1-10.67,.04-.37,.1-.74,.18-1.11,.23-1.11,.6-2.2,.96-3.28,1.9-5.72,4.71-10.98,8.32-15.8,.12-.16,.22-.31,.31-.47,.18-.31,.32-.62,.4-.93,.08-.31,.12-.62,.11-.94-.01-.48-.13-.98-.33-1.52-1.04-2.7-2.08-5.39-3.46-7.96-.15-.29-.29-.59-.42-.89-.15-.37-.27-.75-.38-1.14-.16-.58-.28-1.18-.33-1.76-.2-2.18-.18-4.34,.12-6.46,.15-1.06,.37-2.11,.67-3.15,.3-1.04,.67-2.06,1.14-3.07,.56-1.23,1-2.48,1.33-3.76,.33-1.28,.56-2.59,.71-3.93,.15-1.35,.3-2.7,.46-4.05,.17-1.35,.35-2.69,.55-4.03,.17-1.13,.59-2.07,1.2-2.79,.41-.48,.91-.86,1.48-1.13,.57-.27,1.21-.42,1.91-.45,.35-.02,.71,0,1.09,.05,3.88,.49,7.47,1.89,10.85,3.85,.16,.09,.33,.18,.47,.29,.49,.38,.99,.74,1.5,1.08,1.02,.68,2.07,1.29,3.15,1.84,.54,.27,1.09,.53,1.64,.78,2.21,.99,4.52,1.77,6.88,2.44,3.36,.96,6.67,2.07,10.01,3.08,.83,.25,1.7,.4,2.57,.52,4.38,.59,8.75,1.18,13.14,1.73,3.28,.41,6.42-.15,9.41-1.53,1.06-.48,2.12-.96,3.18-1.43s2.12-.95,3.16-1.46c1.05-.5,2.08-1.02,3.1-1.58,1.02-.56,2.01-1.16,2.98-1.81,.53-.36,1.12-.64,1.69-.93,3.82-1.94,7.17-4.48,10.05-7.64,.6-.66,1.21-1.3,1.84-1.92,1.26-1.25,2.59-2.41,4.03-3.44,.72-.52,1.47-1,2.24-1.44,.78-.44,1.57-.86,2.38-1.25,.81-.39,1.63-.75,2.47-1.07,.57-.22,1.1-.33,1.59-.33,1.47,0,2.57,.93,3.17,2.66,.19,.54,.34,1.09,.45,1.65,.33,1.66,.35,3.36,.32,5.04-.01,.55,0,1.09,.02,1.63,.1,2.15,.46,4.25,1.01,6.3,.14,.51,.29,1.02,.45,1.53,.32,1.02,.68,2.02,1.07,3.02,.44,1.14,1.08,2.24,1.81,3.24,.24,.34,.5,.66,.76,.97,.18,.22,.34,.44,.5,.66,.85,1.19,1.37,2.43,1.57,3.76,.06,.39,.1,.78,.11,1.19,.01,.68-.05,1.38-.19,2.11-.55,2.99-1.08,5.97-2.36,8.76-.21,.46-.38,.93-.52,1.42-.15,.48-.27,.98-.4,1.47-.37,1.43-.4,2.78-.13,4.09,.13,.65,.34,1.29,.62,1.92,.14,.31,.29,.63,.46,.94s.36,.62,.56,.92c.83,1.24,1.62,2.51,2.41,3.78,.79,1.27,1.57,2.54,2.38,3.8,.64,1,1.15,2.03,1.55,3.08,.79,2.09,1.12,4.27,1.11,6.51,0,1.12-.1,2.26-.26,3.41-1.11,7.85-1.59,15.75-1.93,23.66-.05,1.13,.11,2.3,.36,3.41,.73,3.24,1.76,6.38,3.38,9.3,.27,.49,.53,.99,.77,1.5,.34,.7,.64,1.42,.93,2.14,.33,.83,.64,1.67,.92,2.52,.69,2.11,1.23,4.28,1.74,6.45,.05,.22,.1,.45,.12,.68,.08,.66,.01,1.14-.24,1.47Z"/>
      <path class="cls-8" d="M212.83,194.2c-.51-2.17-1.05-4.34-1.74-6.45-.28-.85-.58-1.69-.92-2.52-.29-.72-.59-1.43-.93-2.14-.24-.5-.5-1-.77-1.5-1.61-2.92-2.64-6.07-3.38-9.3-.25-1.11-.41-2.28-.36-3.41,.34-7.91,.82-15.81,1.93-23.66,.16-1.15,.26-2.29,.26-3.41,.01-2.24-.32-4.42-1.11-6.51-.4-1.05-.91-2.07-1.55-3.08-.81-1.26-1.59-2.53-2.38-3.8-.79-1.27-1.58-2.53-2.41-3.78-.2-.3-.39-.61-.56-.92s-.33-.62-.46-.94c-.27-.63-.48-1.27-.62-1.92-.27-1.31-.24-2.66,.13-4.09,.13-.49,.25-.98,.4-1.47,.15-.48,.31-.96,.52-1.42,1.28-2.8,1.81-5.78,2.36-8.76,.13-.73,.2-1.43,.19-2.11,0-.4-.05-.8-.11-1.19-.2-1.33-.72-2.57-1.57-3.76-.16-.22-.32-.45-.5-.66-.26-.31-.52-.64-.76-.97-.73-1.01-1.37-2.11-1.81-3.24-.39-1-.75-2.01-1.07-3.02-.16-.51-.31-1.02-.45-1.53-.55-2.05-.91-4.15-1.01-6.3-.02-.54-.03-1.08-.02-1.63,.03-1.68,.02-3.38-.32-5.04-.11-.55-.26-1.1-.45-1.65-.6-1.73-1.7-2.66-3.17-2.66-.49,0-1.02,.11-1.59,.33-.83,.32-1.66,.68-2.47,1.07-.81,.39-1.6,.81-2.38,1.25-.78,.44-1.52,.92-2.24,1.44-1.44,1.03-2.77,2.19-4.03,3.44-.63,.62-1.24,1.27-1.84,1.92-2.89,3.17-6.24,5.71-10.05,7.64-.57,.29-1.16,.57-1.69,.93-.97,.65-1.97,1.25-2.98,1.81-1.02,.56-2.05,1.08-3.1,1.58-1.05,.5-2.1,.98-3.16,1.46s-2.12,.95-3.18,1.43c-3,1.37-6.13,1.94-9.41,1.53-4.38-.55-8.76-1.14-13.14-1.73-.86-.12-1.74-.27-2.57-.52-3.34-1.01-6.66-2.12-10.01-3.08-2.36-.67-4.67-1.45-6.88-2.44-.55-.25-1.1-.51-1.64-.78-1.08-.55-2.13-1.16-3.15-1.84-.51-.34-1.01-.7-1.5-1.08-.14-.11-.31-.19-.47-.29-3.38-1.96-6.97-3.35-10.85-3.85-.38-.05-.74-.06-1.09-.05-.7,.03-1.34,.19-1.91,.45-.57,.27-1.07,.65-1.48,1.13-.61,.72-1.03,1.66-1.2,2.79-.2,1.34-.38,2.69-.55,4.03-.17,1.35-.32,2.7-.46,4.05-.14,1.34-.37,2.65-.71,3.93-.33,1.28-.77,2.54-1.33,3.76-.46,1.01-.84,2.03-1.14,3.07-.3,1.04-.52,2.09-.67,3.15-.3,2.12-.32,4.28-.12,6.46,.05,.58,.17,1.18,.33,1.76,.11,.39,.23,.77,.38,1.14,.13,.31,.27,.61,.42,.89,1.37,2.57,2.41,5.26,3.46,7.96,.21,.53,.32,1.03,.33,1.52,0,.32-.03,.63-.11,.94-.08,.31-.22,.62-.4,.93-.09,.15-.2,.31-.31,.47-3.61,4.82-6.41,10.08-8.32,15.8-.36,1.08-.73,2.17-.96,3.28-.08,.37-.14,.74-.18,1.11-.41,3.62-.97,7.2-2.1,10.67-.16,.48-.29,.97-.37,1.47-.25,1.63-.53,3.27-.7,4.91-.17,1.61-.39,3.23-.46,4.84-.02,.54-.03,1.07-.01,1.61h0c.06,1.77,.17,3.53,.3,5.3,.14,1.77,.31,3.53,.49,5.29,.52,5.07,1.15,10.14,1.74,15.2,.15,1.31,.28,2.61,.44,4.02,.44-.16,.75-.22,1.01-.38,2.41-1.46,5.11-2.08,7.83-2.54,3.4-.58,6.82-.99,10.24-1.49,.63-.09,1.27-.19,1.89-.36,.86-.23,1.17-.93,1.41-1.72,.03-.1,.05-.19,.05-.27,.01-.17-.02-.31-.08-.43-.03-.06-.07-.12-.11-.17-.13-.16-.3-.29-.48-.43-.06-.05-.11-.09-.17-.14-.43-.38-.84-.78-1.21-1.2-1.13-1.25-2.01-2.68-2.55-4.33-.5-1.54-1.09-3.03-1.74-4.5-.65-1.47-1.37-2.91-2.13-4.33-1-1.86-2.04-3.71-3.05-5.57-.15-.28-.29-.57-.42-.85-.25-.57-.46-1.16-.61-1.75-.38-1.48-.45-3.02-.24-4.6,.09-.63,.11-1.29,.09-1.93-.08-2.41,.15-4.78,.61-7.14,.43-2.19,1.15-4.25,2.54-6.05,.87-1.13,1.64-2.33,2.43-3.52,1.42-2.14,3.21-3.93,5.33-5.34,1.68-1.12,3.46-2.1,5.22-3.1,.78-.44,1.58-.72,2.39-.87,.54-.1,1.09-.15,1.65-.15,.83,0,1.68,.11,2.53,.28,.39,.08,.79,.28,1.09,.54,.67,.56,.68,.98,.09,1.63-.4,.44-.89,.8-1.3,1.23-.34,.36-.59,.77-.75,1.2-.48,1.29-.15,2.74,1.03,3.52,2.16,1.44,4.6,2.12,7.06,.95,2.09-1,4.27-1.68,6.46-2.38,.92-.3,1.84-.49,2.76-.53,.92-.05,1.85,.05,2.79,.34,1.2,.36,2.41,.25,3.38-.62,1.49-1.34,3.18-2.33,4.94-3.26,1.59-.84,2.59-2.18,2.99-3.94,.7-3.07,1.01-6.19,.85-9.32-.25-4.91-.67-9.82-.95-14.73-.2-3.59-.57-7.14-1.76-10.57-.36-1.03-.43-2.16-.59-3.25-.06-.43-.04-.84,.08-1.22,.13-.38,.36-.72,.73-1.02,.5,.13,.98,.28,1.48,.37,1.3,.25,2.61,.53,3.92,.69,1.14,.14,2.18-.18,3.02-1.04,.35-.35,.79-.62,1.42-1.11,.25,.76,.53,1.3,.59,1.86,.11,1.03,.22,2.05,.31,3.08,.09,1.03,.17,2.06,.22,3.09,.09,1.79-.1,3.6,.04,5.38,.07,.85,.11,1.71,.12,2.56,.02,.85,0,1.7-.02,2.55-.06,1.7-.22,3.39-.46,5.08-.33,2.32-.61,4.65-.87,6.99-.11,.98-.13,1.96-.05,2.92,.03,.34,.07,.68,.12,1.02,.2,1.29,.59,2.53,1.18,3.72,.29,.58,.61,1.14,.97,1.67,.71,1.07,1.55,2.04,2.54,2.88,.49,.42,1.02,.81,1.58,1.16,.78,.49,1.53,1.03,2.31,1.51,.56,.35,1.09,.72,1.59,1.12,1.5,1.2,2.72,2.67,3.61,4.46,.12,.24,.26,.47,.42,.71s.33,.5,.51,.79c1.02-1.41,1.93-2.65,2.78-3.83,1.13-.11,2.03,.25,2.9,.68,.29,.14,.57,.29,.86,.44,1.54,.77,3.08,1.54,4.63,2.31,1.54,.77,3.09,1.53,4.65,2.27,1.83,.87,3.08,.32,3.86-1.55,.65-1.56,.79-3.2,.63-4.87-.11-1.1-.24-2.2-.24-3.3,0-1.81,.54-2.29,2.38-2.11,1.51,.15,3.01,.39,4.51,.63,1,.16,1.9,.45,2.73,.87,1.37,.7,2.51,1.77,3.44,3.15,.92,1.38,1.87,2.73,2.76,4.13,.33,.51,.64,1.02,.93,1.55,.88,1.56,1.62,3.18,2.17,4.85,.37,1.11,.65,2.25,.85,3.41,.19,1.16,.3,2.35,.29,3.56,0,4.94-1.23,9.65-3.65,14-1.46,2.62-2.76,5.3-3.66,8.17-.95,3.06-1.56,6.15-1.01,9.37,.22,1.3,.57,1.65,1.8,1.91,1.53,.32,3.04,.75,4.58,1,1.31,.21,2.65,.3,3.97,.3,1.28,0,2.57-.18,3.85-.28,.71-.05,1.42-.09,2.13-.14s1.42-.1,2.13-.19c.67-.08,1.1-.27,1.35-.6,.25-.33,.31-.81,.24-1.47-.03-.23-.07-.46-.12-.68ZM108.35,109.97c-1.07,1.37-2.25,2.66-3.45,3.91-1.75,1.82-3.56,3.58-5.35,5.36-.29,.29-.63,.53-.98,.74-1.01,.63-2.05,1.23-3.06,1.86-1.79,1.1-3.41,.58-4.24-1.32-.62-1.42-.9-2.87-.89-4.42,.02-2.89-.05-5.79-.09-8.91,.34-2.1,.68-4.42,1.11-6.72,.32-1.74,1.14-3.29,2.07-4.78,.86-1.38,2.1-1.86,3.67-1.5,.49,.11,.96,.3,1.43,.5,3.05,1.32,5.88,3.02,8.5,5.07,1.25,.98,1.88,2.19,1.87,3.79,0,.91,.14,1.83,.25,2.74,.17,1.33,0,2.62-.83,3.67Zm19.2,27.23c-.68,.63-1.57,1.2-2.46,1.42-3.49,.87-7.05,1.17-10.64,.88-.18-.01-.37-.02-.55-.07-.89-.21-1.03-.66-.41-1.32,.79-.83,1.64-1.61,2.35-2.51,2.03-2.58,4.69-3.56,7.92-3.4,1.01,.27,2.08,.42,3.03,.82,1.97,.84,2.33,2.71,.76,4.17Zm2.55-4.43c-.34,1.04-1,1.14-1.71,.27-1.48-1.81-2.94-3.65-4.29-5.56-.45-.64-.68-1.52-.75-2.31-.14-1.53,.52-2.47,1.86-3.03,1.35-.56,2.49-.36,3.51,.73,.69,.73,1.44,1.48,1.89,2.36,.46,.9,.58,1.97,.8,2.79-.48,1.76-.82,3.28-1.31,4.76Zm25.98,.35c-.1-.09-.2-.17-.31-.26-.08-1.28-.16-2.55-.23-3.83-.08-1.65-.16-3.3-.21-4.95-.08-2.73,2.13-4.36,4.71-3.47,1.71,.59,2.99,1.77,4.06,3.18,.54,.72,.48,1.42-.18,2.12-.63,.66-1.35,1.25-2.07,1.81-1.78,1.38-3.56,2.76-4.77,4.72-.19,.31-.67,.45-1.02,.68Zm14.45,1.33c-.19,.99-.68,1.8-1.56,2.33-2.12,1.28-4.36,2.12-6.9,2.03-1.32-.05-2.64,.01-4.23,.02,.4-1.25,.62-2.29,1.04-3.24,1.39-3.17,4.65-4.69,7.97-3.76,.93,.26,1.84,.58,2.74,.91,.89,.32,1.12,.77,.94,1.7Zm21.58-31c-.16,1.69-.17,3.39-.24,5.08-.02,.55,0,1.11-.04,1.65-.22,2.4-2.75,3.67-4.67,2.21-1.53-1.16-2.97-2.49-4.23-3.93-2.67-3.06-4.86-6.46-6.38-10.26-.59-1.48-1.51-2.63-3.11-3.08-.74-.21-.92-.66-.79-1.16,.8-.56,1.48-.98,2.11-1.49,.89-.72,1.69-1.56,2.6-2.26,2.66-2.05,4.72-4.61,6.55-7.4,1.38-2.11,2.25-2.21,3.92-.31,1.15,1.31,2.19,2.72,3.27,4.09,.74,.94,1,2.07,1.09,3.22,.35,4.54,.38,9.09-.06,13.63Z"/>
      <path class="cls-5" d="M124.88,189.64c-.08-.23-.15-.45-.25-.65-.78-1.59-1.42-3.21-2.81-4.51-.95-.89-1.46-2.32-1.97-3.59-.82-2.05-1.62-4.11-2.41-6.17-.79-2.06-1.57-4.12-2.36-6.18-.06-.16-.11-.34-.16-.51s-.1-.33-.16-.51h0c.2-.04,.39-.04,.56-.02,0,0,.01,0,.02,0,.35,.05,.63,.21,.87,.42,.12,.1,.23,.22,.33,.34,.96,1.11,1.88,2.25,2.74,3.44,.54,.74,.94,1.58,1.44,2.35,.14,.21,.44,.32,.67,.47,.08-.07,.16-.13,.24-.2-.11-.24-.21-.48-.32-.72-.11-.24-.22-.47-.35-.7-.55-.96-1.1-1.93-1.44-2.96-.16-.48-.29-.97-.33-1.49-.07-.92,.02-1.84,.08-2.77,.02-.31,.04-.62,.05-.93,.03-1.45,.26-2.84,.65-4.16,.64-2.21,1.73-4.25,3.12-6.18,1.15-1.6,2.49-3.07,3.74-4.6,.36-.44,.69-.9,1.1-1.44-1.4-.52-2.63-.92-3.94-.67-1.67,.31-3.34,.62-4.97,1.08-.64,.18-1.26,.42-1.88,.67-.62,.25-1.23,.52-1.86,.76-1.62,.61-3.27,.95-4.98,.35-.82-.29-1.64-.61-2.47-.88-.76-.25-1.22-.79-1.56-1.47-.69-1.42-.57-3.05,.28-4.35,.12-.19,.26-.36,.41-.53,.11-.12,.21-.24,.32-.36,.22-.24,.45-.49,.72-.79,.13-.15,.28-.3,.43-.47-2.24-.78-4.23-.97-6.15-.05-2.15,1.03-4.28,2.13-6.31,3.38-1.57,.96-2.93,2.23-3.96,3.79-1.24,1.88-2.46,3.78-3.67,5.68-1.05,1.65-1.87,3.41-2.06,5.36-.29,3.06-.4,6.15-.66,9.21-.25,2.87,.52,5.41,1.97,7.88,1.56,2.65,3.06,5.33,4.32,8.13,.76,1.68,1.43,3.4,1.98,5.18,.64,2.07,2.01,3.71,3.75,5.01,.89,.67,1.06,.71,1.91-.04,1.47-1.29,3.18-1.96,5.09-2.27,2.27-.36,4.55-.71,6.78-1.22,1.62-.37,3.24-.68,4.89-.82,.55-.05,1.1-.08,1.65-.09,1.93-.03,3.86-.06,5.79-.12,.21,0,.42-.05,.65-.11,.23-.06,.47-.13,.75-.19h0c-.1-.3-.18-.56-.26-.79Z"/>
      <path class="cls-5" d="M196.04,177.63c1.17-2.04,2.2-4.14,2.87-6.4,1.25-4.15,1.85-8.34,.87-12.65-.14-.61-.3-1.22-.47-1.81-.71-2.37-1.72-4.6-2.93-6.73-.91-1.6-1.92-3.14-2.99-4.65-.9-1.26-2.08-2.34-3.57-2.71-1.6-.4-3.23-.63-4.87-.86-.55-.08-1.09-.15-1.64-.23-.68-.1-1.03,.31-1.03,.98,0,.39-.01,.78,0,1.17s.01,.78,.05,1.17c.05,.56,.08,1.11,.09,1.66,.01,1.65-.23,3.27-.85,4.85-.45,1.14-1.12,1.88-1.95,2.2-.83,.32-1.83,.22-2.92-.33-2.84-1.42-5.67-2.84-8.52-4.25-.86-.43-1.76-.79-2.63-1.21-.66-.31-1.14-.15-1.55,.43-.27,.38-.53,.76-.79,1.13-.27,.38-.54,.75-.83,1.1-.16,.2-.29,.4-.38,.6-.28,.61-.28,1.24-.04,1.97,.69,2.05,1.26,4.13,1.96,6.18,.79,2.32,1.35,4.67,1.49,7.13,.08,1.33,.28,2.65,.45,3.97,.04,.28,.16,.55,.32,1.06,.44-.58,.77-.96,1.03-1.38,.18-.29,.35-.6,.51-.9,.16-.3,.32-.61,.49-.91,.25-.45,.51-.88,1.33-.75,.04,.31,.12,.64,.18,.96,.06,.33,.1,.66,.07,.98-.09,1.01-.18,2.02-.3,3.02-.12,1.01-.26,2.01-.47,2.99-.68,3.21-2.05,6.19-3.58,9.08-.88,1.65-2.12,3.01-3.67,4.06-.87,.59-1.81,1.09-2.74,1.6-.65,.35-1.24,.77-1.67,1.34-.14,.19-.27,.4-.38,.63-.06,.14-.12,.27-.16,.41-.08,.27-.1,.55,0,.82,.05,.14,.14,.28,.26,.42,.19-.19,.33-.31,.44-.45,.17-.21,.34-.4,.52-.58,.36-.35,.75-.63,1.15-.84,.2-.1,.41-.19,.63-.26,.65-.21,1.35-.28,2.1-.2,.25,.03,.51,.07,.77,.12,.9,.19,1.82,.23,2.73,.35,2.19,.29,4.37,.59,6.56,.89,2.46,.34,4.91,.88,7.37,.98,2.64,.12,5.22,.38,7.76,1.09,1.45,.41,2.94,.74,4.63,.53-.04-1.17-.15-2.22-.09-3.27,.27-5.19,1.82-10.02,4.38-14.52Z"/>
      <path class="cls-4" d="M139.42,137.48c-.13,.98-.35,1.9-.68,2.76-.42,1.07-1.01,2.04-1.85,2.83-.02,.02-.03,.03-.04,.05-.52,.48-1.13,.89-1.84,1.24-2.01,.98-3.79,2.26-5.42,3.76-.42,.39-.84,.78-1.25,1.18-1.23,1.19-2.39,2.44-3.44,3.76-1.4,1.77-2.61,3.69-3.5,5.84-.39,.93-.75,1.89-.92,2.87-.29,1.72-.51,3.47-.58,5.21-.04,1.03,.11,2.13,.46,3.1,.48,1.33,1.18,2.59,1.88,3.83,1.16,2.07,2.95,3.49,5.04,4.56,1.21,.62,2.39,.6,3.53-.15,.5-.33,.97-.7,1.48-1.02,.27-.17,.53-.34,.8-.51,.7-.45,1.41-.9,2.14-1.3,.23-.13,.47-.25,.71-.37,.71-.35,1.44-.65,2.21-.84,.31-.08,.62-.14,.95-.19,.77-.11,1.54-.18,2.31-.22,2.31-.11,4.61,.11,6.86,.75,.61,.17,1.21,.41,1.8,.67,.29,.13,.59,.27,.88,.4,.29,.14,.58,.27,.88,.41,.22,.1,.44,.19,.65,.22,.09,.01,.18,.02,.26,.02,.3-.02,.59-.18,.88-.57,.17,.26,.32,.49,.46,.71,.14,.22,.27,.42,.42,.61,.09,.12,.19,.25,.3,.36,.11,.11,.23,.21,.36,.26,.77,.29,1.56,.56,2.37,.71,.26,.05,.55,0,.83-.08,.16-.05,.32-.09,.44-.17,1.45-.97,2.88-1.99,4.27-3.05,1.39-1.06,2.07-2.56,1.83-4.24-.34-2.38-.44-4.79-.81-7.17-.22-1.43-.53-2.84-1.04-4.22-.51-1.4-.96-2.82-1.42-4.25-.45-1.42-.91-2.84-1.45-4.23-1.24-3.24-3.44-5.77-6.48-7.46-2.56-1.42-4.6-3.31-6.21-5.74-.83-1.25-1.45-2.55-1.75-4.01-.71-3.53-.48-7.05,.22-10.55,.29-1.47,.52-2.95,.66-4.43,.14-1.48,.19-2.97,.14-4.48-.09-2.89-.02-5.79-.12-8.69-.06-1.74-.32-3.48-.51-5.21-.03-.25-.18-.48-.27-.68-.14,0-.2,0-.23,.01-.08,.04-.16,.09-.22,.16-.29,.33-.6,.6-.93,.8-.66,.4-1.38,.56-2.16,.55-.39,0-.79-.05-1.19-.13-.81-.16-1.62-.35-2.43-.49-.61-.11-1.24-.15-1.98-.24-.02,.31-.06,.58-.08,.83-.02,.25-.03,.47,0,.68,.21,1.22,.46,2.43,.75,3.63,.19,.8,.43,1.6,.65,2.4,.11,.4,.21,.8,.31,1.2,.09,.4,.17,.8,.23,1.21,.08,.53,.14,1.07,.19,1.61,.15,1.61,.21,3.24,.31,4.85,.23,3.67,.41,7.34,.66,11.01,.17,2.42,.14,4.83-.06,7.23-.07,.8-.15,1.6-.26,2.4Zm14.22,30.74c.39,.59,.71,1.08,1.04,1.57-1.33-.33-1.39-.43-1.04-1.57Zm-.19-2.25c.08-.08,.17-.17,.25-.25,.38,.38,.76,.76,1.28,1.28-1.23,.25-1.27-.52-1.53-1.03Zm-23.87-9.43c.22-1.31,.55-2.6,.88-3.89,.22-.85,.8-1.45,1.58-1.81,3.71-1.74,7.51-3.03,11.74-2.52,2.06,.44,4.14,.79,6.17,1.34,2.88,.79,4.14,3.02,4.67,5.75,.4,2.06-.18,3.88-1.39,5.58-1.4,1.98-3.14,3.58-5.15,4.92-1.45,.96-2.86,2-4.22,3.08-1.29,1.03-2.62,1.26-4.1,.56-2.21-1.05-4.32-2.24-5.92-4.17-.46-.55-1.09-.98-1.66-1.43-.7-.56-1.24-1.2-1.42-2.12-.09-.44-.29-.87-.5-1.27-.65-1.27-.91-2.62-.67-4.01Zm1.55,12.94c.05-.73,.08-1.22,.11-1.68-.3,.03-.6,.06-.94,.09,.43-1.17,.95-1.43,2.78-1.42-.31,1.13-.87,2.06-1.95,3.01Zm2.77-2.02c.04,.68-.14,1.06-.92,.57,.38-.23,.65-.4,.92-.57Zm-1.23,2.57c-.27,.41-.54,.82-.81,1.23-.12-.08-.24-.17-.36-.25,.29-.39,.58-.79,.87-1.18,.1,.07,.2,.14,.3,.2Zm1.84-.16c-.31,.81-1.17,1.74-2.74,2.86,.42-1.41,1.43-2.25,2.74-2.86Zm17.25-5c.38,.31,.65,.52,.78,.63,0,.86,.01,1.56,.02,2.24-1.14-.23-1.35-.86-.8-2.87Zm.63,4.91c-.26-.37-.52-.75-.78-1.12,.78,0,1.1,.33,.78,1.12Zm-22.68,7.9c.37-.4,.75-.79,1.24-1.31q-.16,1.03-1.24,1.31Zm3.12-2.46c-.72,.85-1.08,.89-2.41,.25,.37-.25,.68-.65,.98-.63,.8,.04,1.11-.48,1.48-1.01,.37-.54,.76-1.07,1.25-1.74,.3,.74,.08,1.18-.18,1.59-.35,.53-.71,1.06-1.12,1.55Zm18.99-2.15s-.08-.08-.1-.14c-.05-.12-.07-.26-.08-.43-.02-.66-.01-1.32-.02-2.08,1.27,.15,2.52,.33,2.98,1.95-.81,.24-1.06-.63-1.69-.91-.34,.27-.44,.53-.44,.79,.01,.43,.33,.84,.35,1.25,0,0,0,0,0,0h0c-.53-.04-.84-.18-1.02-.43Zm.63,1.06c.31,.42,.45,.62,.64,.87-.65,.16-.78-.09-.64-.87Zm1.1-.89c.77,.27,1.09,.73,1.28,1.48-.99-.06-1.21-.6-1.28-1.48Z"/>
      <path class="cls-8" d="M158.4,189.54c.44-.24,.9-.46,1.35-.69,.94-.49,1.8-1.06,2.57-1.74s1.43-1.47,1.96-2.39c.25-.44,.49-.87,.73-1.32,.47-.88,.92-1.78,1.32-2.69,.4-.91,.76-1.84,1.07-2.78s.57-1.91,.76-2.9c.1-.49,.18-.99,.24-1.5,.14-1.12,.15-2.25,.23-3.57-.3,.21-.39,.25-.44,.32-.27,.37-.53,.75-.79,1.13-1.59,2.34-3.45,4.41-5.86,5.96-.22,.14-.43,.3-.64,.46-.62,.49-1.2,1.05-1.8,1.56-.52,.44-.78,1.01-.79,1.69,0,.41,0,.83,0,1.24,.02,2.22-.7,4.01-2.71,5.23-.33,.2-.61,.5-.87,.82-.26,.33-.5,.68-.74,1.01-.32,.44-.62,.91-.92,1.37-.3,.46-.6,.93-.92,1.37-.73,1-1.74,1.56-2.96,1.87-3.67,.94-7.36,.93-11.09,.42-2.96-.41-5.19-1.74-6.57-4.42-.39-.76-.91-1.36-1.71-1.73-.86-.4-1.3-1.03-1.42-1.84-.04-.27-.04-.56-.01-.87,.11-1.19,.2-2.38,.24-3.58,.02-.5,.02-.83-.06-1.07-.05-.16-.13-.28-.27-.38-.2-.15-.51-.27-.99-.41-2.26-.7-4.14-1.96-5.74-3.67-.33-.35-.64-.7-.94-1.06-.6-.72-1.15-1.48-1.62-2.3-.23-.41-.45-.83-.64-1.27-.07-.16-.14-.33-.23-.49-.17-.32-.38-.62-.72-.87-.17-.12-.37-.23-.61-.33,.15,.59,.22,1.03,.36,1.45,.86,2.43,1.71,4.85,2.61,7.27,.37,.99,.8,1.96,1.28,2.9,.82,1.61,2.05,2.82,3.77,3.47,1.83,.69,2.89,2.06,3.35,3.92,.09,.38,.16,.76,.23,1.15,.06,.39,.12,.77,.2,1.16,.19,.97,.5,1.85,.98,2.63,.48,.78,1.12,1.46,1.95,2.03,.32,.22,.65,.44,.96,.67s.63,.46,.93,.71c.98,.81,2.02,1.29,3.13,1.52,.83,.17,1.69,.2,2.59,.13,.3-.02,.6-.06,.9-.11,1.85-.29,3.74-.47,5.61-.53,3.34-.1,6.3-1.14,8.92-3.2,.61-.48,.99-1.01,1.08-1.83,.19-1.78,1.17-3.06,2.72-3.91Z"/>
      <path class="cls-2" d="M156.15,179.22c-.1-.03-.22-.08-.31-.09-.19-.03-.36-.02-.52,.02-.17,.04-.33,.12-.51,.23-.2,.13-.41,.24-.62,.34-.63,.31-1.28,.51-1.95,.64-.89,.18-1.8,.24-2.72,.3-2.43,.14-4.87,.3-7.3,.3-1.64,0-3.3-.18-4.93-.4-.37-.05-.72-.14-1.05-.26-.66-.25-1.23-.65-1.69-1.19-.23-.27-.44-.57-.62-.91-.1-.18-.29-.31-.48-.5-1.3,.81-2.55,1.58-3.66,2.26-.13,2.09-.27,4.02-.36,5.94-.05,1.02,.21,1.26,1.45,1.6,.59-.82,.59-.83,.5-1.6-.05-.41-.17-.82-.15-1.23,.01-.21,.06-.43,.12-.64,.06-.21,.12-.42,.17-.63,.25,.07,.52,.11,.78,.17s.5,.14,.71,.27c.09,.06,.16,.13,.23,.21,.21,.25,.36,.6,.49,.91,.08,.21,.12,.44,.15,.67,.02,.18,.04,.37,.07,.54,.18,.94,.41,1.76,.69,2.46,.19,.47,.4,.9,.64,1.27s.5,.71,.78,1c.72,.72,1.6,1.18,2.68,1.42,.43,.1,.89,.16,1.38,.18,.49,.03,1.02,.03,1.57,0,.09,0,.18-.02,.27-.03,2.03-.39,4.05-.81,6.09-1.17,1.58-.28,2.5-1.15,2.95-2.7,.56-1.89,1.25-3.74,1.91-5.6,.03-.07,.05-.15,.08-.23,.11-.31,.23-.64,.44-.86,.16-.16,.37-.26,.66-.24,.4,.03,.6,.26,.72,.55s.15,.66,.21,.96c.1,.49,.18,.98,.26,1.5,.08,.52,.17,1.07,.26,1.68,1.45-1.21,1.71-2.62,1.74-4.07,.01-.58-.02-1.16-.02-1.74,0-.29,0-.58,.02-.87-.46-.24-.81-.39-1.12-.48Z"/>
      <path class="cls-8" d="M135.49,178.83c.25,.19,.55,.33,.85,.44,1.14,.42,2.31,.72,3.51,.81,.4,.03,.8,.04,1.21,.02,3.31-.15,6.61-.29,9.92-.47,1.05-.06,2.09-.27,3.02-1.27-.59-.4-1.07-.76-1.58-1.05-.85-.47-1.71-.87-2.59-1.2-.44-.17-.88-.31-1.33-.45-.89-.27-1.8-.47-2.73-.61-1.38-.21-2.8-.29-4.24-.24-2.05,.06-3.98,.58-5.84,1.45-.19,.09-.35,.18-.48,.28-.26,.2-.42,.42-.49,.65-.1,.34-.01,.7,.2,1.03,.14,.22,.34,.43,.57,.6Z"/>
      <path class="cls-8" d="M154.07,196.56c-.53,.4-1.08,.75-1.64,1.05-.56,.3-1.15,.55-1.74,.75-.9,.31-1.83,.52-2.8,.66-.32,.05-.65,.08-.98,.12-.67,.06-1.35,.1-2.02,.14-.34,.02-.68,.03-1.01,.05-.68,.04-1.35,.08-2.02,.15s-1.34,.16-2.01,.29c-.33,.07-.66,.15-1,.24-.04,.01-.07,0-.11,.02-1.02,.25-2.03,.03-3-.36-1.1-.44-2.14-.98-3.12-1.62-.98-.64-1.89-1.37-2.74-2.19-1.33-1.29-2.12-2.87-2.37-4.71-.11-.77-.2-1.56-.44-2.3-.1-.3-.21-.58-.35-.85-.21-.4-.49-.76-.86-1.06-.25-.2-.54-.37-.88-.52-.17-.07-.35-.13-.55-.19,.25,.79,.4,1.35,.62,1.89,.66,1.62,1.47,3.18,2.01,4.84,.76,2.35,2.32,4.04,4.16,5.54,2.99,2.45,6.24,4.25,10.31,3.81,.05,0,.09,0,.14,0,2.39-.05,4.79-.03,7.13-.63,3.09-.79,5.13-2.8,6.65-5.62-.69-.12-1.02,.26-1.35,.52Z"/>
      <path class="cls-3" d="M132.47,184.35c-.12,.03-.24,.07-.36,.1-.07,.37-.12,.74-.15,1.11-.07,.74-.07,1.49,.02,2.23,.04,.37,.11,.74,.19,1.11,.03,.14,.11,.27,.16,.41,.16,.41,.38,.81,.64,1.17,.17,.23,.69,.45,.87,.35,.23-.13,.32-.58,.4-.9,.04-.15-.08-.35-.16-.51-.68-1.37-1.04-2.82-1.23-4.33-.03-.26-.26-.49-.39-.73Z"/>
      <path class="cls-3" d="M152.06,188.82s0,.1,0,.16c.05,.17,.2,.36,.28,.54h0c.34-.25,.65-.61,.91-1.05,.78-1.3,1.14-3.23,.74-4.8-.99,1.6-1.5,3.36-1.94,5.15Z"/>
      <path d="M191.08,86.6c-1.08-1.37-2.12-2.78-3.27-4.09-1.66-1.9-2.53-1.8-3.92,.31-1.82,2.79-3.88,5.35-6.55,7.4-.91,.7-1.71,1.53-2.6,2.26-.62,.51-1.31,.93-2.11,1.49-.13,.49,.05,.95,.79,1.16,1.59,.45,2.52,1.61,3.11,3.08,1.52,3.79,3.71,7.19,6.38,10.26,1.26,1.44,2.7,2.77,4.23,3.93,1.92,1.46,4.45,.2,4.67-2.21,.05-.55,.02-1.1,.04-1.65,.07-1.69,.08-3.4,.24-5.08,.44-4.54,.41-9.09,.06-13.63-.09-1.15-.35-2.28-1.09-3.22Zm.09,16.64c-.07,0-.14,0-.2,0l.05,6.05c0,.28,.03,.55,0,.83-.19,1.68-1.41,2.41-2.95,1.74-.45-.2-.87-.5-1.26-.82-3.96-3.3-6.84-7.41-9.01-12.04-.72-1.54-1.43-3.07-2.62-4.34-.63-.67-.58-.94,.1-1.63,.55-.55,1.12-1.1,1.74-1.56,2.85-2.09,5.18-4.67,7.2-7.55,.29-.41,.57-.84,.93-1.19,.59-.59,1.17-.65,1.67-.04,1.34,1.63,2.69,3.26,3.85,5.02,.49,.76,.64,1.82,.69,2.76,.15,2.89,.24,5.79,.24,8.68,0,1.37-.27,2.74-.42,4.11Z"/>
      <path d="M126.79,133.02c-.95-.41-2.02-.56-3.03-.82-3.23-.16-5.89,.82-7.92,3.4-.7,.9-1.56,1.68-2.35,2.51-.62,.66-.48,1.11,.41,1.32,.18,.04,.36,.05,.55,.07,3.6,.29,7.15-.01,10.64-.88,.89-.22,1.78-.78,2.46-1.42,1.56-1.46,1.21-3.33-.76-4.17Zm-12.2,5.36c.97-1.04,1.77-1.9,2.68-2.88,.53,.96,.99,1.77,1.5,2.69-1.37,.51-2.61,.76-4.18,.2Zm9.98-1.1c-1.27,1.31-4.17,1.28-5.41-.06-.15-.17-.29-.36-.4-.56-.59-1.04-.32-1.57,1.01-1.94,1.76,2.14,2.54,2.25,5.14,.72,.43,.72,.16,1.31-.34,1.83Zm1.66-.47c-.25-1.04-.49-2.07-.76-3.18,1.34,.04,2.01,.42,2.18,1.23,.16,.77-.2,1.28-1.43,1.95Z"/>
      <path d="M108.93,103.55c.01-1.6-.62-2.82-1.87-3.79-2.62-2.05-5.45-3.75-8.5-5.07-.46-.2-.94-.39-1.43-.5-1.57-.37-2.82,.12-3.67,1.5-.92,1.49-1.74,3.04-2.07,4.78-.43,2.3-.76,4.62-1.11,6.72,.04,3.12,.11,6.02,.09,8.91-.01,1.55,.26,3,.89,4.42,.84,1.9,2.45,2.42,4.24,1.32,1.02-.63,2.05-1.23,3.06-1.86,.35-.22,.69-.46,.98-.74,1.8-1.77,3.6-3.54,5.35-5.36,1.2-1.25,2.38-2.55,3.45-3.91,.83-1.05,1-2.34,.83-3.67-.11-.91-.26-1.83-.25-2.74Zm-1.95,7.14c-.58,.71-1.24,1.35-1.9,2-1.31,1.29-2.56,2.67-3.98,3.82-2,1.61-4.09,3.12-6.24,4.54-1.31,.87-2.5,.34-3.05-1.16-.8-2.19-.89-4.5-.89-6.8,0-1.15,.13-2.29,.17-2.98-.13-3.24,.1-5.99,.79-8.67,.37-1.46,.88-2.9,1.48-4.28,.96-2.19,2.64-2.88,4.85-1.89,1.84,.82,3.59,1.85,5.32,2.89,1.18,.71,2.25,1.6,3.36,2.41,.87,.64,1.37,1.43,1.25,2.59-.05,.48,.06,1.01,.19,1.49,.62,2.27,.1,4.28-1.36,6.06Z"/>
      <path d="M169.59,132.74c-.91-.33-1.82-.65-2.74-.91-3.32-.93-6.58,.59-7.97,3.76-.42,.95-.65,1.99-1.04,3.24,1.6-.01,2.92-.07,4.23-.02,2.54,.09,4.78-.75,6.9-2.03,.88-.53,1.37-1.33,1.56-2.33,.18-.94-.05-1.38-.94-1.7Zm-10.53,4.92c.27-.58,.5-1.1,.78-1.72,.75,.49,1.43,.93,2.27,1.49-1.13,.66-2,.51-3.05,.23Zm7.74-2.4c-.67,1.04-1.66,1.53-2.88,1.57-1.28,.04-2.32-.45-3.08-1.47-.29-.39-.24-.8,.13-1.1,.34-.28,.73-.5,1.09-.74,1.58,2.4,1.94,2.45,4.57,.81,.4,.25,.41,.58,.18,.94Zm2.28,.02c-.38,.35-.84,.62-1.26,.92-.09-.08-.18-.16-.27-.24,.13-.8,.26-1.6,.39-2.42,.59-.32,1.1-.22,1.45,.29,.39,.55,.11,1.06-.31,1.45Z"/>
      <path d="M157.1,132.44c1.21-1.97,2.99-3.34,4.77-4.72,.72-.56,1.44-1.15,2.07-1.81,.67-.69,.73-1.4,.18-2.12-1.07-1.41-2.35-2.59-4.06-3.18-2.59-.89-4.79,.74-4.71,3.47,.05,1.65,.13,3.3,.21,4.95,.06,1.28,.15,2.55,.23,3.83,.1,.09,.2,.17,.31,.26,.35-.22,.82-.36,1.02-.68Zm-.85-6.58c-.06-.82-.1-1.66-.04-2.48,.09-1.22,.6-1.7,1.8-1.89,1.91-.3,4.36,.95,5.25,2.65,.24,.46,.24,.88-.09,1.28-.12,.14-.25,.27-.39,.39-2,1.67-4.01,3.34-6.12,5.11-.14-1.69-.29-3.38-.41-5.06Z"/>
      <path d="M128.72,122.87c-1.02-1.09-2.16-1.29-3.51-.73-1.34,.56-2,1.5-1.86,3.03,.07,.79,.31,1.67,.75,2.31,1.35,1.91,2.81,3.75,4.29,5.56,.71,.87,1.37,.77,1.71-.27,.49-1.48,.84-3,1.31-4.76-.22-.82-.35-1.89-.8-2.79-.45-.88-1.2-1.62-1.89-2.36Zm1.36,6.98c-.23,.91-.34,1.85-.52,2.84-2.49-1.56-5.01-5.26-5.22-7.51-.1-1.14,.19-1.72,1.07-2.15,1.02-.5,2.06-.35,2.78,.4,.03,.03,.05,.08,.09,.1,2.16,1.66,2.41,3.85,1.8,6.32Z"/>
      <path d="M130.26,160.55c.21,.4,.42,.83,.5,1.27,.18,.92,.71,1.57,1.42,2.12,.57,.46,1.2,.88,1.66,1.43,1.61,1.93,3.71,3.12,5.92,4.17,1.48,.7,2.82,.47,4.1-.56,1.36-1.09,2.77-2.12,4.22-3.08,2.01-1.34,3.75-2.93,5.15-4.92,1.2-1.7,1.78-3.52,1.39-5.58-.53-2.74-1.78-4.97-4.67-5.75-2.03-.55-4.11-.9-6.17-1.34-4.23-.51-8.03,.78-11.74,2.52-.78,.37-1.36,.97-1.58,1.81-.33,1.29-.67,2.58-.88,3.89-.23,1.39,.02,2.74,.67,4.01Zm19.41,3.11c-.28,.75-.82,1.05-1.33,1.39-1.81,1.21-3.63,2.4-5.42,3.64-.6,.42-1.24,.58-1.93,.38-2.76-.78-5.09-2.15-6.92-4.4,.06-.07,.11-.13,.16-.19-.04-.06-.09-.11-.14-.17,.26-.32,.4-.56,.61-.73,2.9-2.31,6.08-3.68,9.84-2.51,1.74,.54,3.4,1.34,5.17,2.06-.06,.18-.14,.33-.22,.46,.06,.02,.13,.05,.19,.07Zm-12.97-3.14c-2.12-.02-4.1-1.55-4.68-3.6-.58-2.06,.91-3.72,3-3.36,2.23,.39,4.11,2.73,3.93,4.91-.13,1.64-.6,2.07-2.26,2.05Zm9.07-.61c-.41-.72-.87-1.4-1.26-2.12-.67-1.24-.52-2.15,.55-3.06,1.74-1.49,4.06-1.87,6.19-.31,.52,.38,.83,.84,.83,1.42-.09,2.25-2.83,4.79-5.05,4.75-.54-.01-.97-.18-1.25-.68Zm-14.43-6.66c.19-.8,.81-1.35,1.57-1.64,2.96-1.14,5.92-2.44,9.18-2.12,2.51,.25,5.03,.59,7.47,1.21,3.24,.83,4.93,4.09,3.98,7.39-.3,1.03-.85,2.04-1.47,2.93-.9,1.27-1.84,1.36-3.47,.46,.39-.31,.75-.56,1.06-.85,.83-.79,1.75-1.51,2.42-2.42,1.45-1.97,.97-3.86-1.15-5.09-2.21-1.29-5.23-.8-6.93,1.13-.9,1.03-1.05,2.19-.42,3.45,.17,.33,.39,.62,.57,.94,.18,.31,.34,.63,.61,1.14-1.75,.02-3.33,.03-5.01,.05,0-.37-.07-.69,0-.98,.67-2.38-2.23-5.59-4.22-6.1-2.59-.66-4.83,1.5-4.26,4.11,.41,1.87,1.38,3.28,3.21,4.01,.34,.13,.64,.34,1.01,.53-.47,1.09-1.5,1.49-2.44,2.27-1.59-1.68-2.73-3.48-2.62-5.7,.08-1.59,.53-3.16,.9-4.72Z"/>
      <path d="M152.85,173.51s0,0,0,0c-.02-.41-.34-.82-.35-1.25,0-.26,.1-.52,.44-.79,.63,.28,.88,1.15,1.69,.91-.46-1.63-1.71-1.8-2.98-1.95,0,.76,0,1.42,.02,2.08,0,.17,.03,.31,.08,.43,.02,.06,.07,.09,.1,.14,.17,.26,.49,.39,1.02,.43Z"/>
      <path d="M130.31,167.9c.34-.03,.64-.06,.94-.09-.03,.46-.06,.94-.11,1.68,1.07-.95,1.64-1.87,1.95-3.01-1.83,0-2.35,.25-2.78,1.42Z"/>
      <path d="M134.15,172.1c-.49,.67-.88,1.2-1.25,1.74-.36,.53-.67,1.05-1.48,1.01-.29-.01-.61,.38-.98,.63,1.33,.64,1.69,.6,2.41-.25,.41-.49,.78-1.01,1.12-1.55,.26-.4,.48-.85,.18-1.59Z"/>
      <path d="M152.56,165.51c-.13-.1-.4-.32-.78-.63-.55,2.01-.34,2.63,.8,2.87,0-.68-.01-1.38-.02-2.24Z"/>
      <path d="M134.53,169.88c-1.31,.62-2.32,1.46-2.74,2.86,1.57-1.13,2.43-2.06,2.74-2.86Z"/>
      <path d="M153.57,173.25c.07,.88,.29,1.42,1.28,1.48-.2-.75-.51-1.21-1.28-1.48Z"/>
      <path d="M154.68,169.79c-.32-.49-.65-.98-1.04-1.57-.36,1.14-.3,1.24,1.04,1.57Z"/>
      <path d="M154.99,167.01c-.52-.52-.9-.9-1.28-1.28-.08,.08-.17,.17-.25,.25,.26,.51,.3,1.28,1.53,1.03Z"/>
      <path d="M130.97,176.38c-.49,.52-.87,.91-1.24,1.31q1.08-.28,1.24-1.31Z"/>
      <path d="M152.41,169.79c.32-.79,0-1.12-.78-1.12,.26,.37,.52,.75,.78,1.12Z"/>
      <path d="M131.87,171.26c.27-.41,.54-.82,.81-1.23-.1-.07-.2-.14-.3-.2-.29,.39-.58,.79-.87,1.18,.12,.08,.24,.17,.36,.25Z"/>
      <path d="M133.91,167.47c-.27,.17-.55,.33-.92,.57,.78,.5,.97,.12,.92-.57Z"/>
      <path d="M153.1,175.01c-.19-.25-.33-.45-.64-.87-.14,.78-.01,1.03,.64,.87Z"/>
      <path class="cls-5" d="M190.66,87.69c-1.15-1.76-2.51-3.39-3.85-5.02-.5-.61-1.08-.55-1.67,.04-.35,.35-.64,.78-.93,1.19-2.02,2.88-4.35,5.46-7.2,7.55-.63,.46-1.2,1.01-1.74,1.56-.68,.69-.74,.96-.1,1.63,1.19,1.27,1.89,2.8,2.62,4.34,2.17,4.63,5.05,8.75,9.01,12.04,.38,.32,.8,.62,1.26,.82,1.54,.68,2.76-.05,2.95-1.74,.03-.27,0-.55,0-.83l-.05-6.05c.07,0,.14,0,.2,0,.15-1.37,.42-2.74,.42-4.11,0-2.89-.08-5.79-.24-8.68-.05-.94-.2-2.01-.69-2.76Z"/>
      <path class="cls-6" d="M119.78,134.73c-1.33,.36-1.6,.89-1.01,1.94,.11,.2,.25,.39,.4,.56,1.23,1.33,4.14,1.37,5.41,.06,.5-.52,.77-1.1,.34-1.83-2.6,1.52-3.38,1.42-5.14-.72Z"/>
      <path class="cls-3" d="M114.59,138.38c1.57,.56,2.81,.31,4.18-.2-.51-.91-.96-1.73-1.5-2.69-.91,.98-1.71,1.84-2.68,2.88Z"/>
      <path class="cls-3" d="M125.48,133.62c.26,1.11,.51,2.14,.76,3.18,1.23-.67,1.59-1.18,1.43-1.95-.17-.8-.84-1.18-2.18-1.23Z"/>
      <path class="cls-5" d="M108.15,103.14c.13-1.15-.38-1.95-1.25-2.59-1.11-.81-2.18-1.7-3.36-2.41-1.73-1.04-3.48-2.07-5.32-2.89-2.22-.98-3.89-.3-4.85,1.89-.61,1.38-1.11,2.82-1.48,4.28-.69,2.68-.92,5.43-.79,8.67-.04,.69-.17,1.84-.17,2.98,0,2.3,.09,4.61,.89,6.8,.55,1.51,1.74,2.03,3.05,1.16,2.14-1.41,4.24-2.92,6.24-4.54,1.43-1.15,2.67-2.53,3.98-3.82,.65-.65,1.32-1.29,1.9-2,1.46-1.78,1.99-3.79,1.36-6.06-.13-.48-.25-1-.19-1.49Z"/>
      <path class="cls-6" d="M166.62,134.33c-2.63,1.65-2.99,1.59-4.57-.81-.37,.25-.75,.46-1.09,.74-.36,.3-.42,.71-.13,1.1,.77,1.02,1.8,1.51,3.08,1.47,1.22-.04,2.21-.53,2.88-1.57,.23-.35,.22-.69-.18-.94Z"/>
      <path class="cls-3" d="M167.94,133.55c-.13,.82-.26,1.62-.39,2.42,.09,.08,.18,.16,.27,.24,.42-.3,.88-.57,1.26-.92,.42-.39,.7-.9,.31-1.45-.35-.5-.86-.61-1.45-.29Z"/>
      <path class="cls-3" d="M159.06,137.66c1.06,.28,1.93,.43,3.05-.23-.85-.55-1.52-.99-2.27-1.49-.28,.62-.52,1.13-.78,1.72Z"/>
      <path class="cls-4" d="M163.16,125.42c.33-.4,.33-.82,.09-1.28-.88-1.7-3.34-2.95-5.25-2.65-1.2,.19-1.71,.67-1.8,1.89-.06,.82-.02,1.65,.04,2.48,.11,1.69,.27,3.37,.41,5.06,2.11-1.76,4.12-3.43,6.12-5.11,.14-.12,.27-.25,.39-.39Z"/>
      <path class="cls-4" d="M128.27,123.53s-.06-.07-.09-.1c-.71-.74-1.76-.89-2.78-.4-.88,.43-1.17,1.01-1.07,2.15,.21,2.25,2.72,5.94,5.22,7.51,.18-.99,.29-1.93,.52-2.84,.61-2.46,.36-4.66-1.8-6.32Z"/>
      <path class="cls-8" d="M135.51,161.4c-.37-.2-.67-.4-1.01-.53-1.84-.73-2.8-2.14-3.21-4.01-.57-2.6,1.66-4.76,4.26-4.11,1.99,.5,4.89,3.71,4.22,6.1-.08,.28,0,.61,0,.98,1.68-.02,3.26-.03,5.01-.05-.27-.51-.43-.83-.61-1.14-.18-.32-.4-.62-.57-.94-.64-1.25-.49-2.42,.42-3.45,1.7-1.93,4.72-2.42,6.93-1.13,2.11,1.24,2.59,3.13,1.15,5.09-.67,.91-1.59,1.63-2.42,2.42-.31,.3-.67,.54-1.06,.85,1.62,.9,2.57,.81,3.47-.46,.62-.89,1.18-1.89,1.47-2.93,.95-3.29-.74-6.56-3.98-7.39-2.44-.62-4.96-.97-7.47-1.21-3.26-.32-6.22,.98-9.18,2.12-.76,.29-1.38,.84-1.57,1.64-.37,1.56-.82,3.13-.9,4.72-.11,2.22,1.02,4.01,2.62,5.7,.95-.78,1.97-1.17,2.44-2.27Z"/>
      <path class="cls-8" d="M134.67,164c-.15,.11-.29,.28-.44,.47-.05,.06-.1,.12-.16,.19,1.83,2.25,4.16,3.62,6.92,4.4,.69,.2,1.33,.04,1.93-.38,1.79-1.24,3.61-2.43,5.42-3.64,.5-.34,1.05-.63,1.33-1.39-.06-.02-.13-.05-.19-.07-1.7-.65-3.31-1.36-4.99-1.84-3.76-1.09-6.93,.15-9.82,2.26Z"/>
    </g>
  </g>
</svg>